{
	"asset":{
		"generator":"Khronos glTF Blender I/O v4.0.44",
		"version":"2.0"
	},
	"scene":0,
	"scenes":[
		{
			"name":"Scene",
			"nodes":[
				0,
				4,
				5
			]
		}
	],
	"nodes":[
		{
			"mesh":0,
			"name":"Cylinder.001",
			"translation":[
				0,
				14.918067932128906,
				-11.99207592010498
			]
		},
		{
			"mesh":1,
			"name":"Cylinder.003",
			"rotation":[
				-0.7071067690849304,
				2.528810796320613e-07,
				2.247644914632474e-08,
				0.7071067690849304
			]
		},
		{
			"children":[
				1
			],
			"name":"Bone.001",
			"rotation":[
				0.7071067690849304,
				-1.1520231879558196e-07,
				-1.1520231879558196e-07,
				0.7071067690849304
			],
			"translation":[
				0,
				14.918067932128906,
				-11.99207592010498
			]
		},
		{
			"children":[
				2
			],
			"name":"Bone"
		},
		{
			"children":[
				3
			],
			"name":"Armature"
		},
		{
			"mesh":2,
			"name":"Cylinder.002",
			"translation":[
				0,
				14.918067932128906,
				-11.99207592010498
			]
		}
	],
	"animations":[
		{
			"channels":[
				{
					"sampler":0,
					"target":{
						"node":3,
						"path":"translation"
					}
				},
				{
					"sampler":1,
					"target":{
						"node":3,
						"path":"rotation"
					}
				},
				{
					"sampler":2,
					"target":{
						"node":3,
						"path":"scale"
					}
				},
				{
					"sampler":3,
					"target":{
						"node":2,
						"path":"translation"
					}
				},
				{
					"sampler":4,
					"target":{
						"node":2,
						"path":"rotation"
					}
				},
				{
					"sampler":5,
					"target":{
						"node":2,
						"path":"scale"
					}
				}
			],
			"name":"idle_start",
			"samplers":[
				{
					"input":13,
					"interpolation":"STEP",
					"output":14
				},
				{
					"input":13,
					"interpolation":"STEP",
					"output":15
				},
				{
					"input":13,
					"interpolation":"STEP",
					"output":16
				},
				{
					"input":13,
					"interpolation":"STEP",
					"output":17
				},
				{
					"input":18,
					"interpolation":"LINEAR",
					"output":19
				},
				{
					"input":13,
					"interpolation":"STEP",
					"output":20
				}
			]
		},
		{
			"channels":[
				{
					"sampler":0,
					"target":{
						"node":3,
						"path":"translation"
					}
				},
				{
					"sampler":1,
					"target":{
						"node":3,
						"path":"rotation"
					}
				},
				{
					"sampler":2,
					"target":{
						"node":3,
						"path":"scale"
					}
				},
				{
					"sampler":3,
					"target":{
						"node":2,
						"path":"translation"
					}
				},
				{
					"sampler":4,
					"target":{
						"node":2,
						"path":"rotation"
					}
				},
				{
					"sampler":5,
					"target":{
						"node":2,
						"path":"scale"
					}
				}
			],
			"name":"work",
			"samplers":[
				{
					"input":13,
					"interpolation":"STEP",
					"output":21
				},
				{
					"input":13,
					"interpolation":"STEP",
					"output":22
				},
				{
					"input":13,
					"interpolation":"STEP",
					"output":23
				},
				{
					"input":13,
					"interpolation":"STEP",
					"output":24
				},
				{
					"input":13,
					"interpolation":"STEP",
					"output":25
				},
				{
					"input":13,
					"interpolation":"STEP",
					"output":26
				}
			]
		},
		{
			"channels":[
				{
					"sampler":0,
					"target":{
						"node":3,
						"path":"translation"
					}
				},
				{
					"sampler":1,
					"target":{
						"node":3,
						"path":"rotation"
					}
				},
				{
					"sampler":2,
					"target":{
						"node":3,
						"path":"scale"
					}
				},
				{
					"sampler":3,
					"target":{
						"node":2,
						"path":"translation"
					}
				},
				{
					"sampler":4,
					"target":{
						"node":2,
						"path":"rotation"
					}
				},
				{
					"sampler":5,
					"target":{
						"node":2,
						"path":"scale"
					}
				}
			],
			"name":"work_start",
			"samplers":[
				{
					"input":13,
					"interpolation":"STEP",
					"output":27
				},
				{
					"input":13,
					"interpolation":"STEP",
					"output":28
				},
				{
					"input":13,
					"interpolation":"STEP",
					"output":29
				},
				{
					"input":13,
					"interpolation":"STEP",
					"output":30
				},
				{
					"input":18,
					"interpolation":"LINEAR",
					"output":31
				},
				{
					"input":13,
					"interpolation":"STEP",
					"output":32
				}
			]
		}
	],
	"materials":[
		{
			"emissiveFactor":[
				1,
				1,
				1
			],
			"emissiveTexture":{
				"index":0
			},
			"name":"Material",
			"normalTexture":{
				"index":1,
				"scale":3
			},
			"pbrMetallicRoughness":{
				"baseColorTexture":{
					"index":2
				},
				"metallicRoughnessTexture":{
					"index":3
				}
			}
		},
		{
			"doubleSided":true,
			"name":"Material.001",
			"pbrMetallicRoughness":{
				"baseColorTexture":{
					"index":4
				},
				"metallicFactor":0.800000011920929,
				"roughnessFactor":0.949999988079071
			}
		}
	],
	"meshes":[
		{
			"name":"Cylinder.001",
			"primitives":[
				{
					"attributes":{
						"POSITION":0,
						"NORMAL":1,
						"TEXCOORD_0":2
					},
					"indices":3,
					"material":0
				}
			]
		},
		{
			"name":"Cylinder.003",
			"primitives":[
				{
					"attributes":{
						"POSITION":4,
						"NORMAL":5,
						"TEXCOORD_0":6
					},
					"indices":7,
					"material":0
				}
			]
		},
		{
			"name":"Cylinder.002",
			"primitives":[
				{
					"attributes":{
						"POSITION":8,
						"NORMAL":9,
						"TEXCOORD_0":10,
						"TANGENT":11
					},
					"indices":12,
					"material":1
				}
			]
		}
	],
	"textures":[
		{
			"sampler":0,
			"source":0
		},
		{
			"sampler":0,
			"source":1
		},
		{
			"sampler":0,
			"source":2
		},
		{
			"sampler":0,
			"source":3
		},
		{
			"sampler":0,
			"source":4
		}
	],
	"images":[
		{
			"mimeType":"image/png",
			"name":"chemical-plant_light",
			"uri":"chemical-plant_light.png"
		},
		{
			"mimeType":"image/png",
			"name":"chemical-plant_normal",
			"uri":"chemical-plant_normal.png"
		},
		{
			"mimeType":"image/png",
			"name":"chemical-plant_color",
			"uri":"chemical-plant_color.png"
		},
		{
			"mimeType":"image/png",
			"name":"chemical-plant_Metallic-chemical-plant_Roughness",
			"uri":"chemical-plant_Metallic-chemical-plant_Roughness.png"
		},
		{
			"mimeType":"image/png",
			"name":"chemical-inside_color",
			"uri":"chemical-inside_color.png"
		}
	],
	"skins":[
		{
			"inverseBindMatrices":33,
			"joints":[
				3,
				2
			],
			"name":"Armature"
		}
	],
	"accessors":[
		{
			"bufferView":0,
			"componentType":5126,
			"count":1404,
			"max":[
				15.460975646972656,
				2.634988784790039,
				27.413541793823242
			],
			"min":[
				-15.460975646972656,
				-16.459543228149414,
				-3.4293899536132812
			],
			"type":"VEC3"
		},
		{
			"bufferView":1,
			"componentType":5126,
			"count":1404,
			"type":"VEC3"
		},
		{
			"bufferView":2,
			"componentType":5126,
			"count":1404,
			"type":"VEC2"
		},
		{
			"bufferView":3,
			"componentType":5123,
			"count":3330,
			"type":"SCALAR"
		},
		{
			"bufferView":4,
			"componentType":5126,
			"count":419,
			"max":[
				12,
				10.200836181640625,
				26.233440399169922
			],
			"min":[
				-12,
				-4.213284492492676,
				-1.8450593948364258
			],
			"type":"VEC3"
		},
		{
			"bufferView":5,
			"componentType":5126,
			"count":419,
			"type":"VEC3"
		},
		{
			"bufferView":6,
			"componentType":5126,
			"count":419,
			"type":"VEC2"
		},
		{
			"bufferView":7,
			"componentType":5123,
			"count":1170,
			"type":"SCALAR"
		},
		{
			"bufferView":8,
			"componentType":5126,
			"count":109,
			"max":[
				9.24327564239502,
				-1.878586769104004,
				20.531749725341797
			],
			"min":[
				-9.24327564239502,
				-8.54090404510498,
				3.4524030685424805
			],
			"type":"VEC3"
		},
		{
			"bufferView":9,
			"componentType":5126,
			"count":109,
			"type":"VEC3"
		},
		{
			"bufferView":10,
			"componentType":5126,
			"count":109,
			"type":"VEC2"
		},
		{
			"bufferView":11,
			"componentType":5126,
			"count":109,
			"type":"VEC4"
		},
		{
			"bufferView":12,
			"componentType":5123,
			"count":342,
			"type":"SCALAR"
		},
		{
			"bufferView":13,
			"componentType":5126,
			"count":2,
			"max":[
				3
			],
			"min":[
				0.03333333333333333
			],
			"type":"SCALAR"
		},
		{
			"bufferView":14,
			"componentType":5126,
			"count":2,
			"type":"VEC3"
		},
		{
			"bufferView":15,
			"componentType":5126,
			"count":2,
			"type":"VEC4"
		},
		{
			"bufferView":16,
			"componentType":5126,
			"count":2,
			"type":"VEC3"
		},
		{
			"bufferView":17,
			"componentType":5126,
			"count":2,
			"type":"VEC3"
		},
		{
			"bufferView":18,
			"componentType":5126,
			"count":90,
			"max":[
				3
			],
			"min":[
				0.03333333333333333
			],
			"type":"SCALAR"
		},
		{
			"bufferView":19,
			"componentType":5126,
			"count":90,
			"type":"VEC4"
		},
		{
			"bufferView":20,
			"componentType":5126,
			"count":2,
			"type":"VEC3"
		},
		{
			"bufferView":21,
			"componentType":5126,
			"count":2,
			"type":"VEC3"
		},
		{
			"bufferView":22,
			"componentType":5126,
			"count":2,
			"type":"VEC4"
		},
		{
			"bufferView":23,
			"componentType":5126,
			"count":2,
			"type":"VEC3"
		},
		{
			"bufferView":24,
			"componentType":5126,
			"count":2,
			"type":"VEC3"
		},
		{
			"bufferView":25,
			"componentType":5126,
			"count":2,
			"type":"VEC4"
		},
		{
			"bufferView":26,
			"componentType":5126,
			"count":2,
			"type":"VEC3"
		},
		{
			"bufferView":27,
			"componentType":5126,
			"count":2,
			"type":"VEC3"
		},
		{
			"bufferView":28,
			"componentType":5126,
			"count":2,
			"type":"VEC4"
		},
		{
			"bufferView":29,
			"componentType":5126,
			"count":2,
			"type":"VEC3"
		},
		{
			"bufferView":30,
			"componentType":5126,
			"count":2,
			"type":"VEC3"
		},
		{
			"bufferView":31,
			"componentType":5126,
			"count":90,
			"type":"VEC4"
		},
		{
			"bufferView":32,
			"componentType":5126,
			"count":2,
			"type":"VEC3"
		},
		{
			"bufferView":33,
			"componentType":5126,
			"count":2,
			"type":"MAT4"
		}
	],
	"bufferViews":[
		{
			"buffer":0,
			"byteLength":16848,
			"byteOffset":0,
			"target":34962
		},
		{
			"buffer":0,
			"byteLength":16848,
			"byteOffset":16848,
			"target":34962
		},
		{
			"buffer":0,
			"byteLength":11232,
			"byteOffset":33696,
			"target":34962
		},
		{
			"buffer":0,
			"byteLength":6660,
			"byteOffset":44928,
			"target":34963
		},
		{
			"buffer":0,
			"byteLength":5028,
			"byteOffset":51588,
			"target":34962
		},
		{
			"buffer":0,
			"byteLength":5028,
			"byteOffset":56616,
			"target":34962
		},
		{
			"buffer":0,
			"byteLength":3352,
			"byteOffset":61644,
			"target":34962
		},
		{
			"buffer":0,
			"byteLength":2340,
			"byteOffset":64996,
			"target":34963
		},
		{
			"buffer":0,
			"byteLength":1308,
			"byteOffset":67336,
			"target":34962
		},
		{
			"buffer":0,
			"byteLength":1308,
			"byteOffset":68644,
			"target":34962
		},
		{
			"buffer":0,
			"byteLength":872,
			"byteOffset":69952,
			"target":34962
		},
		{
			"buffer":0,
			"byteLength":1744,
			"byteOffset":70824,
			"target":34962
		},
		{
			"buffer":0,
			"byteLength":684,
			"byteOffset":72568,
			"target":34963
		},
		{
			"buffer":0,
			"byteLength":8,
			"byteOffset":73252
		},
		{
			"buffer":0,
			"byteLength":24,
			"byteOffset":73260
		},
		{
			"buffer":0,
			"byteLength":32,
			"byteOffset":73284
		},
		{
			"buffer":0,
			"byteLength":24,
			"byteOffset":73316
		},
		{
			"buffer":0,
			"byteLength":24,
			"byteOffset":73340
		},
		{
			"buffer":0,
			"byteLength":360,
			"byteOffset":73364
		},
		{
			"buffer":0,
			"byteLength":1440,
			"byteOffset":73724
		},
		{
			"buffer":0,
			"byteLength":24,
			"byteOffset":75164
		},
		{
			"buffer":0,
			"byteLength":24,
			"byteOffset":75188
		},
		{
			"buffer":0,
			"byteLength":32,
			"byteOffset":75212
		},
		{
			"buffer":0,
			"byteLength":24,
			"byteOffset":75244
		},
		{
			"buffer":0,
			"byteLength":24,
			"byteOffset":75268
		},
		{
			"buffer":0,
			"byteLength":32,
			"byteOffset":75292
		},
		{
			"buffer":0,
			"byteLength":24,
			"byteOffset":75324
		},
		{
			"buffer":0,
			"byteLength":24,
			"byteOffset":75348
		},
		{
			"buffer":0,
			"byteLength":32,
			"byteOffset":75372
		},
		{
			"buffer":0,
			"byteLength":24,
			"byteOffset":75404
		},
		{
			"buffer":0,
			"byteLength":24,
			"byteOffset":75428
		},
		{
			"buffer":0,
			"byteLength":1440,
			"byteOffset":75452
		},
		{
			"buffer":0,
			"byteLength":24,
			"byteOffset":76892
		},
		{
			"buffer":0,
			"byteLength":128,
			"byteOffset":76916
		}
	],
	"samplers":[
		{
			"magFilter":9729,
			"minFilter":9987
		}
	],
	"buffers":[
		{
			"byteLength":77044,
			"uri":"chemical-plant-1.bin"
		}
	]
}
