{
	"asset":{
		"generator":"Khronos glTF Blender I/O v4.0.44",
		"version":"2.0"
	},
	"scene":0,
	"scenes":[
		{
			"name":"Scene",
			"nodes":[
				3,
				4,
				5
			]
		}
	],
	"nodes":[
		{
			"name":"Bone.001",
			"rotation":[
				0.7071067690849304,
				-1.1520231879558196e-07,
				-1.1520231879558196e-07,
				0.7071067690849304
			],
			"translation":[
				0,
				14.918067932128906,
				-11.99207592010498
			]
		},
		{
			"children":[
				0
			],
			"name":"Bone"
		},
		{
			"name":"neutral_bone",
			"rotation":[
				-0.7071067690849304,
				0,
				0,
				0.7071067690849304
			]
		},
		{
			"mesh":0,
			"name":"Cylinder.001",
			"skin":0
		},
		{
			"children":[
				1,
				2
			],
			"name":"Armature"
		},
		{
			"mesh":1,
			"name":"Cylinder.002",
			"translation":[
				0,
				14.918067932128906,
				-11.99207592010498
			]
		}
	],
	"animations":[
		{
			"channels":[
				{
					"sampler":0,
					"target":{
						"node":1,
						"path":"translation"
					}
				},
				{
					"sampler":1,
					"target":{
						"node":1,
						"path":"rotation"
					}
				},
				{
					"sampler":2,
					"target":{
						"node":1,
						"path":"scale"
					}
				},
				{
					"sampler":3,
					"target":{
						"node":0,
						"path":"translation"
					}
				},
				{
					"sampler":4,
					"target":{
						"node":0,
						"path":"rotation"
					}
				},
				{
					"sampler":5,
					"target":{
						"node":0,
						"path":"scale"
					}
				}
			],
			"name":"idle_start",
			"samplers":[
				{
					"input":14,
					"interpolation":"STEP",
					"output":15
				},
				{
					"input":14,
					"interpolation":"STEP",
					"output":16
				},
				{
					"input":14,
					"interpolation":"STEP",
					"output":17
				},
				{
					"input":14,
					"interpolation":"STEP",
					"output":18
				},
				{
					"input":19,
					"interpolation":"LINEAR",
					"output":20
				},
				{
					"input":14,
					"interpolation":"STEP",
					"output":21
				}
			]
		},
		{
			"channels":[
				{
					"sampler":0,
					"target":{
						"node":1,
						"path":"translation"
					}
				},
				{
					"sampler":1,
					"target":{
						"node":1,
						"path":"rotation"
					}
				},
				{
					"sampler":2,
					"target":{
						"node":1,
						"path":"scale"
					}
				},
				{
					"sampler":3,
					"target":{
						"node":0,
						"path":"translation"
					}
				},
				{
					"sampler":4,
					"target":{
						"node":0,
						"path":"rotation"
					}
				},
				{
					"sampler":5,
					"target":{
						"node":0,
						"path":"scale"
					}
				}
			],
			"name":"work",
			"samplers":[
				{
					"input":14,
					"interpolation":"STEP",
					"output":22
				},
				{
					"input":14,
					"interpolation":"STEP",
					"output":23
				},
				{
					"input":14,
					"interpolation":"STEP",
					"output":24
				},
				{
					"input":14,
					"interpolation":"STEP",
					"output":25
				},
				{
					"input":14,
					"interpolation":"STEP",
					"output":26
				},
				{
					"input":14,
					"interpolation":"STEP",
					"output":27
				}
			]
		},
		{
			"channels":[
				{
					"sampler":0,
					"target":{
						"node":1,
						"path":"translation"
					}
				},
				{
					"sampler":1,
					"target":{
						"node":1,
						"path":"rotation"
					}
				},
				{
					"sampler":2,
					"target":{
						"node":1,
						"path":"scale"
					}
				},
				{
					"sampler":3,
					"target":{
						"node":0,
						"path":"translation"
					}
				},
				{
					"sampler":4,
					"target":{
						"node":0,
						"path":"rotation"
					}
				},
				{
					"sampler":5,
					"target":{
						"node":0,
						"path":"scale"
					}
				}
			],
			"name":"work_start",
			"samplers":[
				{
					"input":14,
					"interpolation":"STEP",
					"output":28
				},
				{
					"input":14,
					"interpolation":"STEP",
					"output":29
				},
				{
					"input":14,
					"interpolation":"STEP",
					"output":30
				},
				{
					"input":14,
					"interpolation":"STEP",
					"output":31
				},
				{
					"input":19,
					"interpolation":"LINEAR",
					"output":32
				},
				{
					"input":14,
					"interpolation":"STEP",
					"output":33
				}
			]
		}
	],
	"materials":[
		{
			"emissiveFactor":[
				1,
				1,
				1
			],
			"emissiveTexture":{
				"index":0
			},
			"name":"Material",
			"normalTexture":{
				"index":1,
				"scale":3
			},
			"pbrMetallicRoughness":{
				"baseColorTexture":{
					"index":2
				},
				"metallicRoughnessTexture":{
					"index":3
				}
			}
		},
		{
			"doubleSided":true,
			"name":"Material.001",
			"pbrMetallicRoughness":{
				"baseColorTexture":{
					"index":4
				},
				"metallicFactor":0.800000011920929,
				"roughnessFactor":0.949999988079071
			}
		}
	],
	"meshes":[
		{
			"name":"Cylinder.001",
			"primitives":[
				{
					"attributes":{
						"POSITION":0,
						"NORMAL":1,
						"TEXCOORD_0":2,
						"JOINTS_0":3,
						"WEIGHTS_0":4
					},
					"indices":5,
					"material":0
				}
			]
		},
		{
			"name":"Cylinder.002",
			"primitives":[
				{
					"attributes":{
						"POSITION":7,
						"NORMAL":8,
						"TEXCOORD_0":9,
						"TANGENT":10,
						"JOINTS_0":11,
						"WEIGHTS_0":12
					},
					"indices":13,
					"material":1
				}
			]
		}
	],
	"textures":[
		{
			"sampler":0,
			"source":0
		},
		{
			"sampler":0,
			"source":1
		},
		{
			"sampler":0,
			"source":2
		},
		{
			"sampler":0,
			"source":3
		},
		{
			"sampler":0,
			"source":4
		}
	],
	"images":[
		{
			"mimeType":"image/png",
			"name":"chemical-plant_light",
			"uri":"chemical-plant_light.png"
		},
		{
			"mimeType":"image/png",
			"name":"chemical-plant_normal",
			"uri":"chemical-plant_normal.png"
		},
		{
			"mimeType":"image/png",
			"name":"chemical-plant_color",
			"uri":"chemical-plant_color.png"
		},
		{
			"mimeType":"image/png",
			"name":"chemical-plant_Metallic-chemical-plant_Roughness",
			"uri":"chemical-plant_Metallic-chemical-plant_Roughness.png"
		},
		{
			"mimeType":"image/png",
			"name":"chemical-inside_color",
			"uri":"chemical-inside_color.png"
		}
	],
	"skins":[
		{
			"inverseBindMatrices":6,
			"joints":[
				1,
				0,
				2
			],
			"name":"Armature"
		}
	],
	"accessors":[
		{
			"bufferView":0,
			"componentType":5126,
			"count":1823,
			"max":[
				15.460975646972656,
				25.11890411376953,
				15.421465873718262
			],
			"min":[
				-15.460975646972656,
				-1.5414752960205078,
				-15.421465873718262
			],
			"type":"VEC3"
		},
		{
			"bufferView":1,
			"componentType":5126,
			"count":1823,
			"type":"VEC3"
		},
		{
			"bufferView":2,
			"componentType":5126,
			"count":1823,
			"type":"VEC2"
		},
		{
			"bufferView":3,
			"componentType":5121,
			"count":1823,
			"type":"VEC4"
		},
		{
			"bufferView":4,
			"componentType":5126,
			"count":1823,
			"type":"VEC4"
		},
		{
			"bufferView":5,
			"componentType":5123,
			"count":4500,
			"type":"SCALAR"
		},
		{
			"bufferView":6,
			"componentType":5126,
			"count":3,
			"type":"MAT4"
		},
		{
			"bufferView":7,
			"componentType":5126,
			"count":109,
			"max":[
				9.24327564239502,
				13.039481163024902,
				8.539673805236816
			],
			"min":[
				-9.24327564239502,
				6.377163887023926,
				-8.5396728515625
			],
			"type":"VEC3"
		},
		{
			"bufferView":8,
			"componentType":5126,
			"count":109,
			"type":"VEC3"
		},
		{
			"bufferView":9,
			"componentType":5126,
			"count":109,
			"type":"VEC2"
		},
		{
			"bufferView":10,
			"componentType":5126,
			"count":109,
			"type":"VEC4"
		},
		{
			"bufferView":11,
			"componentType":5121,
			"count":109,
			"type":"VEC4"
		},
		{
			"bufferView":12,
			"componentType":5126,
			"count":109,
			"type":"VEC4"
		},
		{
			"bufferView":13,
			"componentType":5123,
			"count":342,
			"type":"SCALAR"
		},
		{
			"bufferView":14,
			"componentType":5126,
			"count":2,
			"max":[
				3
			],
			"min":[
				0.03333333333333333
			],
			"type":"SCALAR"
		},
		{
			"bufferView":15,
			"componentType":5126,
			"count":2,
			"type":"VEC3"
		},
		{
			"bufferView":16,
			"componentType":5126,
			"count":2,
			"type":"VEC4"
		},
		{
			"bufferView":17,
			"componentType":5126,
			"count":2,
			"type":"VEC3"
		},
		{
			"bufferView":18,
			"componentType":5126,
			"count":2,
			"type":"VEC3"
		},
		{
			"bufferView":19,
			"componentType":5126,
			"count":90,
			"max":[
				3
			],
			"min":[
				0.03333333333333333
			],
			"type":"SCALAR"
		},
		{
			"bufferView":20,
			"componentType":5126,
			"count":90,
			"type":"VEC4"
		},
		{
			"bufferView":21,
			"componentType":5126,
			"count":2,
			"type":"VEC3"
		},
		{
			"bufferView":22,
			"componentType":5126,
			"count":2,
			"type":"VEC3"
		},
		{
			"bufferView":23,
			"componentType":5126,
			"count":2,
			"type":"VEC4"
		},
		{
			"bufferView":24,
			"componentType":5126,
			"count":2,
			"type":"VEC3"
		},
		{
			"bufferView":25,
			"componentType":5126,
			"count":2,
			"type":"VEC3"
		},
		{
			"bufferView":26,
			"componentType":5126,
			"count":2,
			"type":"VEC4"
		},
		{
			"bufferView":27,
			"componentType":5126,
			"count":2,
			"type":"VEC3"
		},
		{
			"bufferView":28,
			"componentType":5126,
			"count":2,
			"type":"VEC3"
		},
		{
			"bufferView":29,
			"componentType":5126,
			"count":2,
			"type":"VEC4"
		},
		{
			"bufferView":30,
			"componentType":5126,
			"count":2,
			"type":"VEC3"
		},
		{
			"bufferView":31,
			"componentType":5126,
			"count":2,
			"type":"VEC3"
		},
		{
			"bufferView":32,
			"componentType":5126,
			"count":90,
			"type":"VEC4"
		},
		{
			"bufferView":33,
			"componentType":5126,
			"count":2,
			"type":"VEC3"
		}
	],
	"bufferViews":[
		{
			"buffer":0,
			"byteLength":21876,
			"byteOffset":0,
			"target":34962
		},
		{
			"buffer":0,
			"byteLength":21876,
			"byteOffset":21876,
			"target":34962
		},
		{
			"buffer":0,
			"byteLength":14584,
			"byteOffset":43752,
			"target":34962
		},
		{
			"buffer":0,
			"byteLength":7292,
			"byteOffset":58336,
			"target":34962
		},
		{
			"buffer":0,
			"byteLength":29168,
			"byteOffset":65628,
			"target":34962
		},
		{
			"buffer":0,
			"byteLength":9000,
			"byteOffset":94796,
			"target":34963
		},
		{
			"buffer":0,
			"byteLength":192,
			"byteOffset":103796
		},
		{
			"buffer":0,
			"byteLength":1308,
			"byteOffset":103988,
			"target":34962
		},
		{
			"buffer":0,
			"byteLength":1308,
			"byteOffset":105296,
			"target":34962
		},
		{
			"buffer":0,
			"byteLength":872,
			"byteOffset":106604,
			"target":34962
		},
		{
			"buffer":0,
			"byteLength":1744,
			"byteOffset":107476,
			"target":34962
		},
		{
			"buffer":0,
			"byteLength":436,
			"byteOffset":109220,
			"target":34962
		},
		{
			"buffer":0,
			"byteLength":1744,
			"byteOffset":109656,
			"target":34962
		},
		{
			"buffer":0,
			"byteLength":684,
			"byteOffset":111400,
			"target":34963
		},
		{
			"buffer":0,
			"byteLength":8,
			"byteOffset":112084
		},
		{
			"buffer":0,
			"byteLength":24,
			"byteOffset":112092
		},
		{
			"buffer":0,
			"byteLength":32,
			"byteOffset":112116
		},
		{
			"buffer":0,
			"byteLength":24,
			"byteOffset":112148
		},
		{
			"buffer":0,
			"byteLength":24,
			"byteOffset":112172
		},
		{
			"buffer":0,
			"byteLength":360,
			"byteOffset":112196
		},
		{
			"buffer":0,
			"byteLength":1440,
			"byteOffset":112556
		},
		{
			"buffer":0,
			"byteLength":24,
			"byteOffset":113996
		},
		{
			"buffer":0,
			"byteLength":24,
			"byteOffset":114020
		},
		{
			"buffer":0,
			"byteLength":32,
			"byteOffset":114044
		},
		{
			"buffer":0,
			"byteLength":24,
			"byteOffset":114076
		},
		{
			"buffer":0,
			"byteLength":24,
			"byteOffset":114100
		},
		{
			"buffer":0,
			"byteLength":32,
			"byteOffset":114124
		},
		{
			"buffer":0,
			"byteLength":24,
			"byteOffset":114156
		},
		{
			"buffer":0,
			"byteLength":24,
			"byteOffset":114180
		},
		{
			"buffer":0,
			"byteLength":32,
			"byteOffset":114204
		},
		{
			"buffer":0,
			"byteLength":24,
			"byteOffset":114236
		},
		{
			"buffer":0,
			"byteLength":24,
			"byteOffset":114260
		},
		{
			"buffer":0,
			"byteLength":1440,
			"byteOffset":114284
		},
		{
			"buffer":0,
			"byteLength":24,
			"byteOffset":115724
		}
	],
	"samplers":[
		{
			"magFilter":9729,
			"minFilter":9987
		}
	],
	"buffers":[
		{
			"byteLength":115748,
			"uri":"chemical-plant-1.bin"
		}
	]
}
