{
	"asset":{
		"generator":"Khronos glTF Blender I/O v4.0.44",
		"version":"2.0"
	},
	"extensionsUsed":[
		"KHR_materials_emissive_strength"
	],
	"scene":0,
	"scenes":[
		{
			"name":"Scene",
			"nodes":[
				0
			]
		}
	],
	"nodes":[
		{
			"mesh":0,
			"name":"Sphere.001",
			"rotation":[
				0,
				-1,
				0,
				1.6292068494294654e-07
			],
			"scale":[
				0.8862626552581787,
				0.8862626552581787,
				0.8862626552581787
			]
		}
	],
	"materials":[
		{
			"doubleSided":true,
			"emissiveFactor":[
				1,
				1,
				1
			],
			"emissiveTexture":{
				"index":0
			},
			"extensions":{
				"KHR_materials_emissive_strength":{
					"emissiveStrength":10
				}
			},
			"name":"Material",
			"normalTexture":{
				"index":1
			},
			"pbrMetallicRoughness":{
				"baseColorTexture":{
					"index":2
				},
				"metallicRoughnessTexture":{
					"index":3
				}
			}
		}
	],
	"meshes":[
		{
			"name":"Sphere.001",
			"primitives":[
				{
					"attributes":{
						"POSITION":0,
						"NORMAL":1,
						"TEXCOORD_0":2
					},
					"indices":3,
					"material":0
				}
			]
		}
	],
	"textures":[
		{
			"sampler":0,
			"source":0
		},
		{
			"sampler":0,
			"source":1
		},
		{
			"sampler":0,
			"source":2
		},
		{
			"sampler":0,
			"source":3
		}
	],
	"images":[
		{
			"mimeType":"image/png",
			"name":"hybro_light",
			"uri":"hybro_light.png"
		},
		{
			"mimeType":"image/png",
			"name":"hybro_normal",
			"uri":"hybro_normal.png"
		},
		{
			"mimeType":"image/png",
			"name":"hybro_color",
			"uri":"hybro_color.png"
		},
		{
			"mimeType":"image/png",
			"name":"hybro_Metallic-hybro_Roughness",
			"uri":"hybro_Metallic-hybro_Roughness.png"
		}
	],
	"accessors":[
		{
			"bufferView":0,
			"componentType":5126,
			"count":2935,
			"max":[
				25.00000762939453,
				30.062206268310547,
				25.000003814697266
			],
			"min":[
				-25.00000762939453,
				-1.3645503520965576,
				-25.0000057220459
			],
			"type":"VEC3"
		},
		{
			"bufferView":1,
			"componentType":5126,
			"count":2935,
			"type":"VEC3"
		},
		{
			"bufferView":2,
			"componentType":5126,
			"count":2935,
			"type":"VEC2"
		},
		{
			"bufferView":3,
			"componentType":5123,
			"count":7158,
			"type":"SCALAR"
		}
	],
	"bufferViews":[
		{
			"buffer":0,
			"byteLength":35220,
			"byteOffset":0,
			"target":34962
		},
		{
			"buffer":0,
			"byteLength":35220,
			"byteOffset":35220,
			"target":34962
		},
		{
			"buffer":0,
			"byteLength":23480,
			"byteOffset":70440,
			"target":34962
		},
		{
			"buffer":0,
			"byteLength":14316,
			"byteOffset":93920,
			"target":34963
		}
	],
	"samplers":[
		{
			"magFilter":9729,
			"minFilter":9987
		}
	],
	"buffers":[
		{
			"byteLength":108236,
			"uri":"hydro-plant-1.bin"
		}
	]
}
