{
	"asset":{
		"generator":"Khronos glTF Blender I/O v4.0.44",
		"version":"2.0"
	},
	"extensionsUsed":[
		"KHR_materials_emissive_strength"
	],
	"scene":0,
	"scenes":[
		{
			"name":"Scene",
			"nodes":[
				0,
				6
			]
		}
	],
	"nodes":[
		{
			"mesh":0,
			"name":"Cube",
			"translation":[
				0,
				2.4181880950927734,
				0
			]
		},
		{
			"mesh":1,
			"name":"Cube.002",
			"rotation":[
				0.7071067690849304,
				-7.112445147248564e-22,
				-7.299614450806881e-22,
				0.7071067690849304
			],
			"translation":[
				4.1923847504676814e-08,
				-5.866575241088867,
				1.4173531326377997e-06
			]
		},
		{
			"children":[
				1
			],
			"name":"Bone",
			"rotation":[
				0.7071067690849304,
				-5.338507591545749e-08,
				-5.338508302088485e-08,
				0.7071067690849304
			],
			"translation":[
				-2.7440714836120605,
				13.093912124633789,
				5.4389142990112305
			]
		},
		{
			"mesh":2,
			"name":"Cube.001",
			"rotation":[
				0.7071067690849304,
				-1.834262103123185e-21,
				-1.890413045651974e-21,
				0.7071067690849304
			],
			"translation":[
				-8.017149610850538e-08,
				-5.866575241088867,
				-5.075992959291398e-08
			]
		},
		{
			"children":[
				3
			],
			"name":"Bone.001",
			"rotation":[
				0.7071067690849304,
				-1.376787679419067e-07,
				-1.3767878215276141e-07,
				0.7071067690849304
			],
			"translation":[
				2.6383018493652344,
				13.093914031982422,
				5.667562484741211
			]
		},
		{
			"children":[
				2,
				4
			],
			"name":"Bone.002",
			"translation":[
				2.7440714836120605,
				-13.093912124633789,
				-5.4389142990112305
			]
		},
		{
			"children":[
				5
			],
			"name":"Armature",
			"translation":[
				-2.7440714836120605,
				15.512100219726562,
				5.4389142990112305
			]
		}
	],
	"animations":[
		{
			"channels":[
				{
					"sampler":0,
					"target":{
						"node":5,
						"path":"translation"
					}
				},
				{
					"sampler":1,
					"target":{
						"node":5,
						"path":"rotation"
					}
				},
				{
					"sampler":2,
					"target":{
						"node":5,
						"path":"scale"
					}
				},
				{
					"sampler":3,
					"target":{
						"node":2,
						"path":"translation"
					}
				},
				{
					"sampler":4,
					"target":{
						"node":2,
						"path":"rotation"
					}
				},
				{
					"sampler":5,
					"target":{
						"node":2,
						"path":"scale"
					}
				},
				{
					"sampler":6,
					"target":{
						"node":4,
						"path":"translation"
					}
				},
				{
					"sampler":7,
					"target":{
						"node":4,
						"path":"rotation"
					}
				},
				{
					"sampler":8,
					"target":{
						"node":4,
						"path":"scale"
					}
				}
			],
			"name":"ArmatureAction",
			"samplers":[
				{
					"input":14,
					"interpolation":"STEP",
					"output":15
				},
				{
					"input":14,
					"interpolation":"STEP",
					"output":16
				},
				{
					"input":14,
					"interpolation":"STEP",
					"output":17
				},
				{
					"input":14,
					"interpolation":"STEP",
					"output":18
				},
				{
					"input":14,
					"interpolation":"STEP",
					"output":19
				},
				{
					"input":14,
					"interpolation":"STEP",
					"output":20
				},
				{
					"input":14,
					"interpolation":"STEP",
					"output":21
				},
				{
					"input":14,
					"interpolation":"STEP",
					"output":22
				},
				{
					"input":14,
					"interpolation":"STEP",
					"output":23
				}
			]
		}
	],
	"materials":[
		{
			"doubleSided":true,
			"emissiveFactor":[
				1,
				1,
				1
			],
			"emissiveTexture":{
				"index":0
			},
			"extensions":{
				"KHR_materials_emissive_strength":{
					"emissiveStrength":50
				}
			},
			"name":"Material",
			"normalTexture":{
				"index":1,
				"scale":5
			},
			"pbrMetallicRoughness":{
				"baseColorTexture":{
					"index":2
				},
				"metallicRoughnessTexture":{
					"index":3
				}
			}
		}
	],
	"meshes":[
		{
			"name":"Cube",
			"primitives":[
				{
					"attributes":{
						"POSITION":0,
						"NORMAL":1,
						"TEXCOORD_0":2
					},
					"indices":3,
					"material":0
				}
			]
		},
		{
			"name":"Cube.002",
			"primitives":[
				{
					"attributes":{
						"POSITION":4,
						"NORMAL":5,
						"TEXCOORD_0":6,
						"TANGENT":7
					},
					"indices":8,
					"material":0
				}
			]
		},
		{
			"name":"Cube.001",
			"primitives":[
				{
					"attributes":{
						"POSITION":9,
						"NORMAL":10,
						"TEXCOORD_0":11,
						"TANGENT":12
					},
					"indices":13,
					"material":0
				}
			]
		}
	],
	"textures":[
		{
			"sampler":0,
			"source":0
		},
		{
			"sampler":0,
			"source":1
		},
		{
			"sampler":0,
			"source":2
		},
		{
			"sampler":0,
			"source":3
		}
	],
	"images":[
		{
			"mimeType":"image/png",
			"name":"crusher_light",
			"uri":"crusher_light.png"
		},
		{
			"mimeType":"image/png",
			"name":"crusher_normal",
			"uri":"crusher_normal.png"
		},
		{
			"mimeType":"image/png",
			"name":"crusher_color",
			"uri":"crusher_color.png"
		},
		{
			"mimeType":"image/png",
			"name":"crusher_Metallic-crusher_Roughness",
			"uri":"crusher_Metallic-crusher_Roughness.png"
		}
	],
	"skins":[
		{
			"inverseBindMatrices":24,
			"joints":[
				5,
				2,
				4
			],
			"name":"Armature"
		}
	],
	"accessors":[
		{
			"bufferView":0,
			"componentType":5126,
			"count":3661,
			"max":[
				9.557413101196289,
				15.581379890441895,
				9.557413101196289
			],
			"min":[
				-9.557413101196289,
				-2.4181880950927734,
				-9.557413101196289
			],
			"type":"VEC3"
		},
		{
			"bufferView":1,
			"componentType":5126,
			"count":3661,
			"type":"VEC3"
		},
		{
			"bufferView":2,
			"componentType":5126,
			"count":3661,
			"type":"VEC2"
		},
		{
			"bufferView":3,
			"componentType":5123,
			"count":6366,
			"type":"SCALAR"
		},
		{
			"bufferView":4,
			"componentType":5126,
			"count":792,
			"max":[
				2.828745126724243,
				2.8287487030029297,
				5.557241916656494
			],
			"min":[
				-2.828742504119873,
				-2.8287343978881836,
				-5.420284271240234
			],
			"type":"VEC3"
		},
		{
			"bufferView":5,
			"componentType":5126,
			"count":792,
			"type":"VEC3"
		},
		{
			"bufferView":6,
			"componentType":5126,
			"count":792,
			"type":"VEC2"
		},
		{
			"bufferView":7,
			"componentType":5126,
			"count":792,
			"type":"VEC4"
		},
		{
			"bufferView":8,
			"componentType":5123,
			"count":1080,
			"type":"SCALAR"
		},
		{
			"bufferView":9,
			"componentType":5126,
			"count":792,
			"max":[
				2.8413093090057373,
				2.84130859375,
				5.617169380187988
			],
			"min":[
				-2.8413095474243164,
				-2.841306686401367,
				-5.617171287536621
			],
			"type":"VEC3"
		},
		{
			"bufferView":10,
			"componentType":5126,
			"count":792,
			"type":"VEC3"
		},
		{
			"bufferView":11,
			"componentType":5126,
			"count":792,
			"type":"VEC2"
		},
		{
			"bufferView":12,
			"componentType":5126,
			"count":792,
			"type":"VEC4"
		},
		{
			"bufferView":13,
			"componentType":5123,
			"count":1080,
			"type":"SCALAR"
		},
		{
			"bufferView":14,
			"componentType":5126,
			"count":2,
			"max":[
				0.041666666666666664
			],
			"min":[
				0
			],
			"type":"SCALAR"
		},
		{
			"bufferView":15,
			"componentType":5126,
			"count":2,
			"type":"VEC3"
		},
		{
			"bufferView":16,
			"componentType":5126,
			"count":2,
			"type":"VEC4"
		},
		{
			"bufferView":17,
			"componentType":5126,
			"count":2,
			"type":"VEC3"
		},
		{
			"bufferView":18,
			"componentType":5126,
			"count":2,
			"type":"VEC3"
		},
		{
			"bufferView":19,
			"componentType":5126,
			"count":2,
			"type":"VEC4"
		},
		{
			"bufferView":20,
			"componentType":5126,
			"count":2,
			"type":"VEC3"
		},
		{
			"bufferView":21,
			"componentType":5126,
			"count":2,
			"type":"VEC3"
		},
		{
			"bufferView":22,
			"componentType":5126,
			"count":2,
			"type":"VEC4"
		},
		{
			"bufferView":23,
			"componentType":5126,
			"count":2,
			"type":"VEC3"
		},
		{
			"bufferView":24,
			"componentType":5126,
			"count":3,
			"type":"MAT4"
		}
	],
	"bufferViews":[
		{
			"buffer":0,
			"byteLength":43932,
			"byteOffset":0,
			"target":34962
		},
		{
			"buffer":0,
			"byteLength":43932,
			"byteOffset":43932,
			"target":34962
		},
		{
			"buffer":0,
			"byteLength":29288,
			"byteOffset":87864,
			"target":34962
		},
		{
			"buffer":0,
			"byteLength":12732,
			"byteOffset":117152,
			"target":34963
		},
		{
			"buffer":0,
			"byteLength":9504,
			"byteOffset":129884,
			"target":34962
		},
		{
			"buffer":0,
			"byteLength":9504,
			"byteOffset":139388,
			"target":34962
		},
		{
			"buffer":0,
			"byteLength":6336,
			"byteOffset":148892,
			"target":34962
		},
		{
			"buffer":0,
			"byteLength":12672,
			"byteOffset":155228,
			"target":34962
		},
		{
			"buffer":0,
			"byteLength":2160,
			"byteOffset":167900,
			"target":34963
		},
		{
			"buffer":0,
			"byteLength":9504,
			"byteOffset":170060,
			"target":34962
		},
		{
			"buffer":0,
			"byteLength":9504,
			"byteOffset":179564,
			"target":34962
		},
		{
			"buffer":0,
			"byteLength":6336,
			"byteOffset":189068,
			"target":34962
		},
		{
			"buffer":0,
			"byteLength":12672,
			"byteOffset":195404,
			"target":34962
		},
		{
			"buffer":0,
			"byteLength":2160,
			"byteOffset":208076,
			"target":34963
		},
		{
			"buffer":0,
			"byteLength":8,
			"byteOffset":210236
		},
		{
			"buffer":0,
			"byteLength":24,
			"byteOffset":210244
		},
		{
			"buffer":0,
			"byteLength":32,
			"byteOffset":210268
		},
		{
			"buffer":0,
			"byteLength":24,
			"byteOffset":210300
		},
		{
			"buffer":0,
			"byteLength":24,
			"byteOffset":210324
		},
		{
			"buffer":0,
			"byteLength":32,
			"byteOffset":210348
		},
		{
			"buffer":0,
			"byteLength":24,
			"byteOffset":210380
		},
		{
			"buffer":0,
			"byteLength":24,
			"byteOffset":210404
		},
		{
			"buffer":0,
			"byteLength":32,
			"byteOffset":210428
		},
		{
			"buffer":0,
			"byteLength":24,
			"byteOffset":210460
		},
		{
			"buffer":0,
			"byteLength":192,
			"byteOffset":210484
		}
	],
	"samplers":[
		{
			"magFilter":9729,
			"minFilter":9987
		}
	],
	"buffers":[
		{
			"byteLength":210676,
			"uri":"crusher-1.bin"
		}
	]
}
