{
	"asset":{
		"generator":"Khronos glTF Blender I/O v4.0.44",
		"version":"2.0"
	},
	"extensionsUsed":[
		"KHR_materials_emissive_strength"
	],
	"scene":0,
	"scenes":[
		{
			"name":"Scene",
			"nodes":[
				0,
				4
			]
		}
	],
	"nodes":[
		{
			"mesh":0,
			"name":"zhuti.II.001",
			"rotation":[
				0,
				-1,
				0,
				1.6292068494294654e-07
			]
		},
		{
			"mesh":1,
			"name":"zhuti.II.002",
			"rotation":[
				0.7071067690849304,
				0,
				0,
				0.7071067690849304
			],
			"translation":[
				0,
				10.510000228881836,
				0
			]
		},
		{
			"children":[
				1
			],
			"name":"Bone.001",
			"rotation":[
				0,
				1.1920927533992653e-07,
				0,
				1
			],
			"scale":[
				1,
				0.9999999403953552,
				1
			],
			"translation":[
				0,
				27.94815444946289,
				0
			]
		},
		{
			"children":[
				2
			],
			"name":"Bone",
			"translation":[
				0,
				-28.486331939697266,
				1.1920928955078125e-07
			]
		},
		{
			"children":[
				3
			],
			"name":"Armature",
			"translation":[
				0,
				28.486331939697266,
				0
			]
		}
	],
	"animations":[
		{
			"channels":[
				{
					"sampler":0,
					"target":{
						"node":3,
						"path":"translation"
					}
				},
				{
					"sampler":1,
					"target":{
						"node":3,
						"path":"rotation"
					}
				},
				{
					"sampler":2,
					"target":{
						"node":3,
						"path":"scale"
					}
				},
				{
					"sampler":3,
					"target":{
						"node":2,
						"path":"translation"
					}
				},
				{
					"sampler":4,
					"target":{
						"node":2,
						"path":"rotation"
					}
				},
				{
					"sampler":5,
					"target":{
						"node":2,
						"path":"scale"
					}
				}
			],
			"name":"ArmatureAction",
			"samplers":[
				{
					"input":8,
					"interpolation":"STEP",
					"output":9
				},
				{
					"input":8,
					"interpolation":"STEP",
					"output":10
				},
				{
					"input":8,
					"interpolation":"STEP",
					"output":11
				},
				{
					"input":8,
					"interpolation":"STEP",
					"output":12
				},
				{
					"input":8,
					"interpolation":"STEP",
					"output":13
				},
				{
					"input":8,
					"interpolation":"STEP",
					"output":14
				}
			]
		}
	],
	"materials":[
		{
			"doubleSided":true,
			"emissiveFactor":[
				1,
				1,
				1
			],
			"emissiveTexture":{
				"index":0
			},
			"extensions":{
				"KHR_materials_emissive_strength":{
					"emissiveStrength":6
				}
			},
			"name":"Material.007",
			"normalTexture":{
				"index":1
			},
			"pbrMetallicRoughness":{
				"baseColorTexture":{
					"index":2
				},
				"metallicRoughnessTexture":{
					"index":3
				}
			}
		}
	],
	"meshes":[
		{
			"name":"zhuti.001",
			"primitives":[
				{
					"attributes":{
						"POSITION":0,
						"NORMAL":1,
						"TEXCOORD_0":2
					},
					"indices":3,
					"material":0
				}
			]
		},
		{
			"name":"zhuti.002",
			"primitives":[
				{
					"attributes":{
						"POSITION":4,
						"NORMAL":5,
						"TEXCOORD_0":6
					},
					"indices":7,
					"material":0
				}
			]
		}
	],
	"textures":[
		{
			"sampler":0,
			"source":0
		},
		{
			"sampler":0,
			"source":1
		},
		{
			"sampler":0,
			"source":2
		},
		{
			"sampler":0,
			"source":3
		}
	],
	"images":[
		{
			"mimeType":"image/png",
			"name":"air-filter_light",
			"uri":"air-filter_light.png"
		},
		{
			"mimeType":"image/png",
			"name":"air-filter_normal",
			"uri":"air-filter_normal.png"
		},
		{
			"mimeType":"image/png",
			"name":"air-filter_color",
			"uri":"air-filter_color.png"
		},
		{
			"mimeType":"image/png",
			"name":"air-filter_Metallic-air-filter_Roughness",
			"uri":"air-filter_Metallic-air-filter_Roughness.png"
		}
	],
	"skins":[
		{
			"inverseBindMatrices":15,
			"joints":[
				3,
				2
			],
			"name":"Armature"
		}
	],
	"accessors":[
		{
			"bufferView":0,
			"componentType":5126,
			"count":544,
			"max":[
				9.085254669189453,
				32.24884033203125,
				7.991094589233398
			],
			"min":[
				-7.991093635559082,
				-0.11425425857305527,
				-10
			],
			"type":"VEC3"
		},
		{
			"bufferView":1,
			"componentType":5126,
			"count":544,
			"type":"VEC3"
		},
		{
			"bufferView":2,
			"componentType":5126,
			"count":544,
			"type":"VEC2"
		},
		{
			"bufferView":3,
			"componentType":5123,
			"count":906,
			"type":"SCALAR"
		},
		{
			"bufferView":4,
			"componentType":5126,
			"count":126,
			"max":[
				7.4337592124938965,
				7.433747291564941,
				11.604483604431152
			],
			"min":[
				-7.43374490737915,
				-7.433754920959473,
				8.524806022644043
			],
			"type":"VEC3"
		},
		{
			"bufferView":5,
			"componentType":5126,
			"count":126,
			"type":"VEC3"
		},
		{
			"bufferView":6,
			"componentType":5126,
			"count":126,
			"type":"VEC2"
		},
		{
			"bufferView":7,
			"componentType":5123,
			"count":192,
			"type":"SCALAR"
		},
		{
			"bufferView":8,
			"componentType":5126,
			"count":2,
			"max":[
				0.041666666666666664
			],
			"min":[
				0
			],
			"type":"SCALAR"
		},
		{
			"bufferView":9,
			"componentType":5126,
			"count":2,
			"type":"VEC3"
		},
		{
			"bufferView":10,
			"componentType":5126,
			"count":2,
			"type":"VEC4"
		},
		{
			"bufferView":11,
			"componentType":5126,
			"count":2,
			"type":"VEC3"
		},
		{
			"bufferView":12,
			"componentType":5126,
			"count":2,
			"type":"VEC3"
		},
		{
			"bufferView":13,
			"componentType":5126,
			"count":2,
			"type":"VEC4"
		},
		{
			"bufferView":14,
			"componentType":5126,
			"count":2,
			"type":"VEC3"
		},
		{
			"bufferView":15,
			"componentType":5126,
			"count":2,
			"type":"MAT4"
		}
	],
	"bufferViews":[
		{
			"buffer":0,
			"byteLength":6528,
			"byteOffset":0,
			"target":34962
		},
		{
			"buffer":0,
			"byteLength":6528,
			"byteOffset":6528,
			"target":34962
		},
		{
			"buffer":0,
			"byteLength":4352,
			"byteOffset":13056,
			"target":34962
		},
		{
			"buffer":0,
			"byteLength":1812,
			"byteOffset":17408,
			"target":34963
		},
		{
			"buffer":0,
			"byteLength":1512,
			"byteOffset":19220,
			"target":34962
		},
		{
			"buffer":0,
			"byteLength":1512,
			"byteOffset":20732,
			"target":34962
		},
		{
			"buffer":0,
			"byteLength":1008,
			"byteOffset":22244,
			"target":34962
		},
		{
			"buffer":0,
			"byteLength":384,
			"byteOffset":23252,
			"target":34963
		},
		{
			"buffer":0,
			"byteLength":8,
			"byteOffset":23636
		},
		{
			"buffer":0,
			"byteLength":24,
			"byteOffset":23644
		},
		{
			"buffer":0,
			"byteLength":32,
			"byteOffset":23668
		},
		{
			"buffer":0,
			"byteLength":24,
			"byteOffset":23700
		},
		{
			"buffer":0,
			"byteLength":24,
			"byteOffset":23724
		},
		{
			"buffer":0,
			"byteLength":32,
			"byteOffset":23748
		},
		{
			"buffer":0,
			"byteLength":24,
			"byteOffset":23780
		},
		{
			"buffer":0,
			"byteLength":128,
			"byteOffset":23804
		}
	],
	"samplers":[
		{
			"magFilter":9729,
			"minFilter":9987
		}
	],
	"buffers":[
		{
			"byteLength":23932,
			"uri":"air-filter.bin"
		}
	]
}
