{
	"asset":{
		"generator":"Khronos glTF Blender I/O v4.0.44",
		"version":"2.0"
	},
	"extensionsUsed":[
		"KHR_materials_emissive_strength"
	],
	"scene":0,
	"scenes":[
		{
			"name":"Scene",
			"nodes":[
				0,
				1
			]
		}
	],
	"nodes":[
		{
			"mesh":0,
			"name":"Cylinder.011",
			"translation":[
				0,
				0.2505394518375397,
				0
			]
		},
		{
			"mesh":1,
			"name":"Cylinder.001",
			"translation":[
				0,
				0.2505394518375397,
				0
			]
		}
	],
	"materials":[
		{
			"doubleSided":true,
			"emissiveFactor":[
				1,
				1,
				1
			],
			"emissiveTexture":{
				"index":0
			},
			"extensions":{
				"KHR_materials_emissive_strength":{
					"emissiveStrength":20
				}
			},
			"name":"Material",
			"normalTexture":{
				"index":1,
				"scale":3
			},
			"pbrMetallicRoughness":{
				"baseColorTexture":{
					"index":2
				},
				"metallicRoughnessTexture":{
					"index":3
				}
			}
		}
	],
	"meshes":[
		{
			"name":"Cylinder.010",
			"primitives":[
				{
					"attributes":{
						"POSITION":0,
						"NORMAL":1,
						"TEXCOORD_0":2
					},
					"indices":3,
					"material":0
				}
			]
		},
		{
			"name":"Cylinder.001",
			"primitives":[
				{
					"attributes":{
						"POSITION":4,
						"NORMAL":5,
						"TEXCOORD_0":6,
						"TANGENT":7
					},
					"indices":8,
					"material":0
				}
			]
		}
	],
	"textures":[
		{
			"sampler":0,
			"source":0
		},
		{
			"sampler":0,
			"source":1
		},
		{
			"sampler":0,
			"source":2
		},
		{
			"sampler":0,
			"source":3
		}
	],
	"images":[
		{
			"mimeType":"image/png",
			"name":"geothermal-plant_light",
			"uri":"geothermal-plant_light.png"
		},
		{
			"mimeType":"image/png",
			"name":"geothermal-plant_normal",
			"uri":"geothermal-plant_normal.png"
		},
		{
			"mimeType":"image/png",
			"name":"geothermal-plant_color",
			"uri":"geothermal-plant_color.png"
		},
		{
			"mimeType":"image/png",
			"name":"geothermal-plant_Metallic-geothermal-plant_Roughness",
			"uri":"geothermal-plant_Metallic-geothermal-plant_Roughness.png"
		}
	],
	"accessors":[
		{
			"bufferView":0,
			"componentType":5126,
			"count":2279,
			"max":[
				25.070430755615234,
				9.37629222869873,
				25
			],
			"min":[
				-22.79804801940918,
				-3.0759756565093994,
				-24.732051849365234
			],
			"type":"VEC3"
		},
		{
			"bufferView":1,
			"componentType":5126,
			"count":2279,
			"type":"VEC3"
		},
		{
			"bufferView":2,
			"componentType":5126,
			"count":2279,
			"type":"VEC2"
		},
		{
			"bufferView":3,
			"componentType":5123,
			"count":4488,
			"type":"SCALAR"
		},
		{
			"bufferView":4,
			"componentType":5126,
			"count":48,
			"max":[
				10.519667625427246,
				0.46320703625679016,
				10.519670486450195
			],
			"min":[
				-10.519667625427246,
				0.46320703625679016,
				-10.519668579101562
			],
			"type":"VEC3"
		},
		{
			"bufferView":5,
			"componentType":5126,
			"count":48,
			"type":"VEC3"
		},
		{
			"bufferView":6,
			"componentType":5126,
			"count":48,
			"type":"VEC2"
		},
		{
			"bufferView":7,
			"componentType":5126,
			"count":48,
			"type":"VEC4"
		},
		{
			"bufferView":8,
			"componentType":5123,
			"count":72,
			"type":"SCALAR"
		}
	],
	"bufferViews":[
		{
			"buffer":0,
			"byteLength":27348,
			"byteOffset":0,
			"target":34962
		},
		{
			"buffer":0,
			"byteLength":27348,
			"byteOffset":27348,
			"target":34962
		},
		{
			"buffer":0,
			"byteLength":18232,
			"byteOffset":54696,
			"target":34962
		},
		{
			"buffer":0,
			"byteLength":8976,
			"byteOffset":72928,
			"target":34963
		},
		{
			"buffer":0,
			"byteLength":576,
			"byteOffset":81904,
			"target":34962
		},
		{
			"buffer":0,
			"byteLength":576,
			"byteOffset":82480,
			"target":34962
		},
		{
			"buffer":0,
			"byteLength":384,
			"byteOffset":83056,
			"target":34962
		},
		{
			"buffer":0,
			"byteLength":768,
			"byteOffset":83440,
			"target":34962
		},
		{
			"buffer":0,
			"byteLength":144,
			"byteOffset":84208,
			"target":34963
		}
	],
	"samplers":[
		{
			"magFilter":9729,
			"minFilter":9987
		}
	],
	"buffers":[
		{
			"byteLength":84352,
			"uri":"geothermal-plant.bin"
		}
	]
}
