{
	"asset":{
		"generator":"Khronos glTF Blender I/O v4.0.44",
		"version":"2.0"
	},
	"scene":0,
	"scenes":[
		{
			"name":"Scene",
			"nodes":[
				0
			]
		}
	],
	"nodes":[
		{
			"mesh":0,
			"name":"Cylinder"
		}
	],
	"materials":[
		{
			"emissiveFactor":[
				1,
				1,
				1
			],
			"emissiveTexture":{
				"index":0
			},
			"name":"Material",
			"normalTexture":{
				"index":1,
				"scale":5
			},
			"pbrMetallicRoughness":{
				"baseColorTexture":{
					"index":2
				},
				"metallicRoughnessTexture":{
					"index":3
				}
			}
		}
	],
	"meshes":[
		{
			"name":"Cylinder",
			"primitives":[
				{
					"attributes":{
						"POSITION":0,
						"NORMAL":1,
						"TEXCOORD_0":2
					},
					"indices":3,
					"material":0
				}
			]
		}
	],
	"textures":[
		{
			"sampler":0,
			"source":0
		},
		{
			"sampler":0,
			"source":1
		},
		{
			"sampler":0,
			"source":2
		},
		{
			"sampler":0,
			"source":3
		}
	],
	"images":[
		{
			"mimeType":"image/png",
			"name":"flotation-cell_light",
			"uri":"flotation-cell_light.png"
		},
		{
			"mimeType":"image/png",
			"name":"flotation-cell_normal",
			"uri":"flotation-cell_normal.png"
		},
		{
			"mimeType":"image/png",
			"name":"flotation-cell_color",
			"uri":"flotation-cell_color.png"
		},
		{
			"mimeType":"image/png",
			"name":"flotation-cell_Metallic-flotation-cell_Roughness",
			"uri":"flotation-cell_Metallic-flotation-cell_Roughness.png"
		}
	],
	"accessors":[
		{
			"bufferView":0,
			"componentType":5126,
			"count":5126,
			"max":[
				22.38838005065918,
				34.80449295043945,
				22.38838005065918
			],
			"min":[
				-22.38838005065918,
				-3.525143623352051,
				-22.38838005065918
			],
			"type":"VEC3"
		},
		{
			"bufferView":1,
			"componentType":5126,
			"count":5126,
			"type":"VEC3"
		},
		{
			"bufferView":2,
			"componentType":5126,
			"count":5126,
			"type":"VEC2"
		},
		{
			"bufferView":3,
			"componentType":5123,
			"count":9330,
			"type":"SCALAR"
		}
	],
	"bufferViews":[
		{
			"buffer":0,
			"byteLength":61512,
			"byteOffset":0,
			"target":34962
		},
		{
			"buffer":0,
			"byteLength":61512,
			"byteOffset":61512,
			"target":34962
		},
		{
			"buffer":0,
			"byteLength":41008,
			"byteOffset":123024,
			"target":34962
		},
		{
			"buffer":0,
			"byteLength":18660,
			"byteOffset":164032,
			"target":34963
		}
	],
	"samplers":[
		{
			"magFilter":9729,
			"minFilter":9987
		}
	],
	"buffers":[
		{
			"byteLength":182692,
			"uri":"flotation-cell-1.bin"
		}
	]
}
