{
	"asset":{
		"generator":"Khronos glTF Blender I/O v4.0.44",
		"version":"2.0"
	},
	"extensionsUsed":[
		"KHR_materials_emissive_strength"
	],
	"scene":0,
	"scenes":[
		{
			"name":"Scene",
			"nodes":[
				0
			]
		}
	],
	"nodes":[
		{
			"mesh":0,
			"name":"Plane.011",
			"scale":[
				0.8295962810516357,
				1.1267197132110596,
				1.1267197132110596
			],
			"translation":[
				-0.970525860786438,
				18.566072463989258,
				-0.7061567306518555
			]
		}
	],
	"materials":[
		{
			"emissiveFactor":[
				1,
				1,
				1
			],
			"emissiveTexture":{
				"index":0
			},
			"extensions":{
				"KHR_materials_emissive_strength":{
					"emissiveStrength":40
				}
			},
			"name":"Material",
			"normalTexture":{
				"index":1,
				"scale":2
			},
			"pbrMetallicRoughness":{
				"baseColorTexture":{
					"index":2
				},
				"metallicRoughnessTexture":{
					"index":3
				}
			}
		}
	],
	"meshes":[
		{
			"name":"Plane.008",
			"primitives":[
				{
					"attributes":{
						"POSITION":0,
						"NORMAL":1,
						"TEXCOORD_0":2
					},
					"indices":3,
					"material":0
				}
			]
		}
	],
	"textures":[
		{
			"sampler":0,
			"source":0
		},
		{
			"sampler":0,
			"source":1
		},
		{
			"sampler":0,
			"source":2
		},
		{
			"sampler":0,
			"source":3
		}
	],
	"images":[
		{
			"mimeType":"image/png",
			"name":"headquater_light",
			"uri":"headquater_light.png"
		},
		{
			"mimeType":"image/png",
			"name":"color",
			"uri":"color.png"
		},
		{
			"mimeType":"image/png",
			"name":"headquater_color",
			"uri":"headquater_color.png"
		},
		{
			"mimeType":"image/png",
			"name":"headquater_Metallic-headquater_Roughness",
			"uri":"headquater_Metallic-headquater_Roughness.png"
		}
	],
	"accessors":[
		{
			"bufferView":0,
			"componentType":5126,
			"count":6150,
			"max":[
				28.240842819213867,
				18.666988372802734,
				20.228410720825195
			],
			"min":[
				-25.901086807250977,
				-16.452571868896484,
				-19.58692741394043
			],
			"type":"VEC3"
		},
		{
			"bufferView":1,
			"componentType":5126,
			"count":6150,
			"type":"VEC3"
		},
		{
			"bufferView":2,
			"componentType":5126,
			"count":6150,
			"type":"VEC2"
		},
		{
			"bufferView":3,
			"componentType":5123,
			"count":13872,
			"type":"SCALAR"
		}
	],
	"bufferViews":[
		{
			"buffer":0,
			"byteLength":73800,
			"byteOffset":0,
			"target":34962
		},
		{
			"buffer":0,
			"byteLength":73800,
			"byteOffset":73800,
			"target":34962
		},
		{
			"buffer":0,
			"byteLength":49200,
			"byteOffset":147600,
			"target":34962
		},
		{
			"buffer":0,
			"byteLength":27744,
			"byteOffset":196800,
			"target":34963
		}
	],
	"samplers":[
		{
			"magFilter":9729,
			"minFilter":9987
		}
	],
	"buffers":[
		{
			"byteLength":224544,
			"uri":"headquater-1.bin"
		}
	]
}
