{
	"asset":{
		"generator":"Khronos glTF Blender I/O v4.0.44",
		"version":"2.0"
	},
	"scene":0,
	"scenes":[
		{
			"name":"Scene",
			"nodes":[
				0,
				1
			]
		}
	],
	"nodes":[
		{
			"mesh":0,
			"name":"Plane.022",
			"rotation":[
				0,
				-1,
				0,
				1.6292068494294654e-07
			]
		},
		{
			"mesh":1,
			"name":"Plane.023",
			"rotation":[
				0,
				-1,
				0,
				1.6292068494294654e-07
			]
		}
	],
	"materials":[
		{
			"doubleSided":true,
			"emissiveFactor":[
				1,
				1,
				1
			],
			"emissiveTexture":{
				"index":0
			},
			"name":"Material.011",
			"normalTexture":{
				"index":1
			},
			"pbrMetallicRoughness":{
				"baseColorTexture":{
					"index":2
				},
				"metallicRoughnessTexture":{
					"index":3
				}
			}
		},
		{
			"doubleSided":true,
			"emissiveFactor":[
				1,
				1,
				1
			],
			"emissiveTexture":{
				"index":4
			},
			"name":"Material.012",
			"normalTexture":{
				"index":5
			},
			"pbrMetallicRoughness":{
				"baseColorTexture":{
					"index":6
				},
				"metallicRoughnessTexture":{
					"index":7
				}
			}
		}
	],
	"meshes":[
		{
			"name":"Plane.031",
			"primitives":[
				{
					"attributes":{
						"POSITION":0,
						"NORMAL":1,
						"TEXCOORD_0":2,
						"TANGENT":3
					},
					"indices":4,
					"material":0
				}
			]
		},
		{
			"name":"Plane.032",
			"primitives":[
				{
					"attributes":{
						"POSITION":5,
						"NORMAL":6,
						"TEXCOORD_0":7,
						"TANGENT":8
					},
					"indices":9,
					"material":1
				}
			]
		}
	],
	"textures":[
		{
			"sampler":0,
			"source":0
		},
		{
			"sampler":0,
			"source":1
		},
		{
			"sampler":0,
			"source":2
		},
		{
			"sampler":0,
			"source":3
		},
		{
			"sampler":0,
			"source":4
		},
		{
			"sampler":0,
			"source":5
		},
		{
			"sampler":0,
			"source":6
		},
		{
			"sampler":0,
			"source":7
		}
	],
	"images":[
		{
			"mimeType":"image/png",
			"name":"track-A_light",
			"uri":"track-A_light.png"
		},
		{
			"mimeType":"image/png",
			"name":"track-A_normal",
			"uri":"track-A_normal.png"
		},
		{
			"mimeType":"image/png",
			"name":"track-A_color.png",
			"uri":"track-A_color_png.png"
		},
		{
			"mimeType":"image/png",
			"name":"track-A_Metallic-track-A_Roughness",
			"uri":"track-A_Metallic-track-A_Roughness.png"
		},
		{
			"mimeType":"image/png",
			"name":"anything_light",
			"uri":"anything_light.png"
		},
		{
			"mimeType":"image/png",
			"name":"track-B_normal",
			"uri":"track-B_normal.png"
		},
		{
			"mimeType":"image/png",
			"name":"track-B_color",
			"uri":"track-B_color.png"
		},
		{
			"mimeType":"image/png",
			"name":"track-B_Metallic-track-B_Roughness",
			"uri":"track-B_Metallic-track-B_Roughness.png"
		}
	],
	"accessors":[
		{
			"bufferView":0,
			"componentType":5126,
			"count":14,
			"max":[
				2.75,
				2,
				3.499999761581421
			],
			"min":[
				-2.75,
				0,
				-3.499999761581421
			],
			"type":"VEC3"
		},
		{
			"bufferView":1,
			"componentType":5126,
			"count":14,
			"type":"VEC3"
		},
		{
			"bufferView":2,
			"componentType":5126,
			"count":14,
			"type":"VEC2"
		},
		{
			"bufferView":3,
			"componentType":5126,
			"count":14,
			"type":"VEC4"
		},
		{
			"bufferView":4,
			"componentType":5123,
			"count":36,
			"type":"SCALAR"
		},
		{
			"bufferView":5,
			"componentType":5126,
			"count":20,
			"max":[
				2.75,
				2,
				3.499999761581421
			],
			"min":[
				-2.75,
				0,
				-3.499999761581421
			],
			"type":"VEC3"
		},
		{
			"bufferView":6,
			"componentType":5126,
			"count":20,
			"type":"VEC3"
		},
		{
			"bufferView":7,
			"componentType":5126,
			"count":20,
			"type":"VEC2"
		},
		{
			"bufferView":8,
			"componentType":5126,
			"count":20,
			"type":"VEC4"
		},
		{
			"bufferView":9,
			"componentType":5123,
			"count":36,
			"type":"SCALAR"
		}
	],
	"bufferViews":[
		{
			"buffer":0,
			"byteLength":168,
			"byteOffset":0,
			"target":34962
		},
		{
			"buffer":0,
			"byteLength":168,
			"byteOffset":168,
			"target":34962
		},
		{
			"buffer":0,
			"byteLength":112,
			"byteOffset":336,
			"target":34962
		},
		{
			"buffer":0,
			"byteLength":224,
			"byteOffset":448,
			"target":34962
		},
		{
			"buffer":0,
			"byteLength":72,
			"byteOffset":672,
			"target":34963
		},
		{
			"buffer":0,
			"byteLength":240,
			"byteOffset":744,
			"target":34962
		},
		{
			"buffer":0,
			"byteLength":240,
			"byteOffset":984,
			"target":34962
		},
		{
			"buffer":0,
			"byteLength":160,
			"byteOffset":1224,
			"target":34962
		},
		{
			"buffer":0,
			"byteLength":320,
			"byteOffset":1384,
			"target":34962
		},
		{
			"buffer":0,
			"byteLength":72,
			"byteOffset":1704,
			"target":34963
		}
	],
	"samplers":[
		{
			"magFilter":9729,
			"minFilter":9987
		}
	],
	"buffers":[
		{
			"byteLength":1776,
			"uri":"belt.bin"
		}
	]
}
