{
	"asset":{
		"generator":"Khronos glTF Blender I/O v4.0.44",
		"version":"2.0"
	},
	"extensionsUsed":[
		"KHR_materials_emissive_strength"
	],
	"scene":0,
	"scenes":[
		{
			"name":"Scene",
			"nodes":[
				0
			]
		}
	],
	"nodes":[
		{
			"mesh":0,
			"name":"Plane.019",
			"scale":[
				1.0189369916915894,
				1.4551894664764404,
				1.0189369916915894
			]
		}
	],
	"materials":[
		{
			"doubleSided":true,
			"emissiveFactor":[
				1,
				1,
				1
			],
			"emissiveTexture":{
				"index":0
			},
			"extensions":{
				"KHR_materials_emissive_strength":{
					"emissiveStrength":10
				}
			},
			"name":"Material.002",
			"normalTexture":{
				"index":1
			},
			"pbrMetallicRoughness":{
				"baseColorTexture":{
					"index":2
				},
				"metallicRoughnessTexture":{
					"index":3
				}
			}
		}
	],
	"meshes":[
		{
			"name":"Plane.021",
			"primitives":[
				{
					"attributes":{
						"POSITION":0,
						"NORMAL":1,
						"TEXCOORD_0":2
					},
					"indices":3,
					"material":0
				}
			]
		}
	],
	"textures":[
		{
			"sampler":0,
			"source":0
		},
		{
			"sampler":0,
			"source":1
		},
		{
			"sampler":0,
			"source":2
		},
		{
			"sampler":0,
			"source":3
		}
	],
	"images":[
		{
			"mimeType":"image/png",
			"name":"small-warehouse_light",
			"uri":"small-warehouse_light.png"
		},
		{
			"mimeType":"image/png",
			"name":"small-warehouse_normal",
			"uri":"small-warehouse_normal.png"
		},
		{
			"mimeType":"image/png",
			"name":"small-warehouse_color",
			"uri":"small-warehouse_color.png"
		},
		{
			"mimeType":"image/png",
			"name":"small-warehouse_Metallic-small-warehouse_Roughness",
			"uri":"small-warehouse_Metallic-small-warehouse_Roughness.png"
		}
	],
	"accessors":[
		{
			"bufferView":0,
			"componentType":5126,
			"count":333,
			"max":[
				4.907073974609375,
				2.543684482574463,
				4.907075881958008
			],
			"min":[
				-4.907076358795166,
				-0.006749153137207031,
				-4.907073974609375
			],
			"type":"VEC3"
		},
		{
			"bufferView":1,
			"componentType":5126,
			"count":333,
			"type":"VEC3"
		},
		{
			"bufferView":2,
			"componentType":5126,
			"count":333,
			"type":"VEC2"
		},
		{
			"bufferView":3,
			"componentType":5123,
			"count":876,
			"type":"SCALAR"
		}
	],
	"bufferViews":[
		{
			"buffer":0,
			"byteLength":3996,
			"byteOffset":0,
			"target":34962
		},
		{
			"buffer":0,
			"byteLength":3996,
			"byteOffset":3996,
			"target":34962
		},
		{
			"buffer":0,
			"byteLength":2664,
			"byteOffset":7992,
			"target":34962
		},
		{
			"buffer":0,
			"byteLength":1752,
			"byteOffset":10656,
			"target":34963
		}
	],
	"samplers":[
		{
			"magFilter":9729,
			"minFilter":9987
		}
	],
	"buffers":[
		{
			"byteLength":12408,
			"uri":"depot.bin"
		}
	]
}
