{
	"asset":{
		"generator":"Khronos glTF Blender I/O v4.0.44",
		"version":"2.0"
	},
	"scene":0,
	"scenes":[
		{
			"name":"Scene",
			"nodes":[
				0
			]
		}
	],
	"nodes":[
		{
			"mesh":0,
			"name":"Plane"
		}
	],
	"materials":[
		{
			"emissiveFactor":[
				1,
				1,
				1
			],
			"emissiveTexture":{
				"index":0
			},
			"name":"Material",
			"normalTexture":{
				"index":1,
				"scale":2
			},
			"pbrMetallicRoughness":{
				"baseColorTexture":{
					"index":2
				},
				"metallicRoughnessTexture":{
					"index":3
				}
			}
		}
	],
	"meshes":[
		{
			"name":"Plane",
			"primitives":[
				{
					"attributes":{
						"COLOR_0":0,
						"POSITION":1,
						"NORMAL":2,
						"TEXCOORD_0":3,
						"TEXCOORD_1":4
					},
					"indices":5,
					"material":0
				}
			]
		}
	],
	"textures":[
		{
			"sampler":0,
			"source":0
		},
		{
			"sampler":0,
			"source":1
		},
		{
			"sampler":0,
			"source":2
		},
		{
			"sampler":0,
			"source":3
		}
	],
	"images":[
		{
			"mimeType":"image/png",
			"name":"anything_light",
			"uri":"anything_light.png"
		},
		{
			"mimeType":"image/png",
			"name":"chimney_normal",
			"uri":"chimney_normal.png"
		},
		{
			"mimeType":"image/png",
			"name":"Chimney_color",
			"uri":"Chimney_color.png"
		},
		{
			"mimeType":"image/png",
			"name":"Chimney_Metallic-Chimney_Roughness",
			"uri":"Chimney_Metallic-Chimney_Roughness.png"
		}
	],
	"accessors":[
		{
			"bufferView":0,
			"componentType":5123,
			"count":1821,
			"normalized":true,
			"type":"VEC4"
		},
		{
			"bufferView":1,
			"componentType":5126,
			"count":1821,
			"max":[
				9,
				30.268611907958984,
				10
			],
			"min":[
				-9.758831977844238,
				0,
				-9
			],
			"type":"VEC3"
		},
		{
			"bufferView":2,
			"componentType":5126,
			"count":1821,
			"type":"VEC3"
		},
		{
			"bufferView":3,
			"componentType":5126,
			"count":1821,
			"type":"VEC2"
		},
		{
			"bufferView":4,
			"componentType":5126,
			"count":1821,
			"type":"VEC2"
		},
		{
			"bufferView":5,
			"componentType":5123,
			"count":3024,
			"type":"SCALAR"
		}
	],
	"bufferViews":[
		{
			"buffer":0,
			"byteLength":14568,
			"byteOffset":0,
			"target":34962
		},
		{
			"buffer":0,
			"byteLength":21852,
			"byteOffset":14568,
			"target":34962
		},
		{
			"buffer":0,
			"byteLength":21852,
			"byteOffset":36420,
			"target":34962
		},
		{
			"buffer":0,
			"byteLength":14568,
			"byteOffset":58272,
			"target":34962
		},
		{
			"buffer":0,
			"byteLength":14568,
			"byteOffset":72840,
			"target":34962
		},
		{
			"buffer":0,
			"byteLength":6048,
			"byteOffset":87408,
			"target":34963
		}
	],
	"samplers":[
		{
			"magFilter":9729,
			"minFilter":9987
		}
	],
	"buffers":[
		{
			"byteLength":93456,
			"uri":"chimney-1.bin"
		}
	]
}
