{
	"asset":{
		"generator":"Khronos glTF Blender I/O v4.0.44",
		"version":"2.0"
	},
	"extensionsUsed":[
		"KHR_materials_emissive_strength"
	],
	"scene":0,
	"scenes":[
		{
			"name":"Scene",
			"nodes":[
				0
			]
		}
	],
	"nodes":[
		{
			"mesh":0,
			"name":"Plane.005",
			"scale":[
				0.153352290391922,
				0.153352290391922,
				0.153352290391922
			],
			"translation":[
				-0.07742375135421753,
				9.944546699523926,
				-0.7910519242286682
			]
		}
	],
	"materials":[
		{
			"doubleSided":true,
			"emissiveFactor":[
				1,
				1,
				1
			],
			"emissiveTexture":{
				"index":0
			},
			"extensions":{
				"KHR_materials_emissive_strength":{
					"emissiveStrength":20
				}
			},
			"name":"Material",
			"normalTexture":{
				"index":1,
				"scale":5
			},
			"pbrMetallicRoughness":{
				"baseColorTexture":{
					"index":2
				},
				"metallicRoughnessTexture":{
					"index":3
				}
			}
		}
	],
	"meshes":[
		{
			"name":"Plane.006",
			"primitives":[
				{
					"attributes":{
						"POSITION":0,
						"NORMAL":1,
						"TEXCOORD_0":2
					},
					"indices":3,
					"material":0
				}
			]
		}
	],
	"textures":[
		{
			"sampler":0,
			"source":0
		},
		{
			"sampler":0,
			"source":1
		},
		{
			"sampler":0,
			"source":2
		},
		{
			"sampler":0,
			"source":3
		}
	],
	"images":[
		{
			"mimeType":"image/png",
			"name":"electrolyzer_light",
			"uri":"electrolyzer_light.png"
		},
		{
			"mimeType":"image/png",
			"name":"electrolyzer_normal",
			"uri":"electrolyzer_normal.png"
		},
		{
			"mimeType":"image/png",
			"name":"electrolyzer_color",
			"uri":"electrolyzer_color.png"
		},
		{
			"mimeType":"image/png",
			"name":"electrolyzer_Metallic-electrolyzer_Roughness",
			"uri":"electrolyzer_Metallic-electrolyzer_Roughness.png"
		}
	],
	"accessors":[
		{
			"bufferView":0,
			"componentType":5126,
			"count":7303,
			"max":[
				154.01307678222656,
				129.47535705566406,
				143.75164794921875
			],
			"min":[
				-154.01307678222656,
				-68.94361877441406,
				-132.4713897705078
			],
			"type":"VEC3"
		},
		{
			"bufferView":1,
			"componentType":5126,
			"count":7303,
			"type":"VEC3"
		},
		{
			"bufferView":2,
			"componentType":5126,
			"count":7303,
			"type":"VEC2"
		},
		{
			"bufferView":3,
			"componentType":5123,
			"count":12648,
			"type":"SCALAR"
		}
	],
	"bufferViews":[
		{
			"buffer":0,
			"byteLength":87636,
			"byteOffset":0,
			"target":34962
		},
		{
			"buffer":0,
			"byteLength":87636,
			"byteOffset":87636,
			"target":34962
		},
		{
			"buffer":0,
			"byteLength":58424,
			"byteOffset":175272,
			"target":34962
		},
		{
			"buffer":0,
			"byteLength":25296,
			"byteOffset":233696,
			"target":34963
		}
	],
	"samplers":[
		{
			"magFilter":9729,
			"minFilter":9987
		}
	],
	"buffers":[
		{
			"byteLength":258992,
			"uri":"electrolyzer-1.bin"
		}
	]
}
