{
	"asset":{
		"generator":"Khronos glTF Blender I/O v4.0.44",
		"version":"2.0"
	},
	"extensionsUsed":[
		"KHR_materials_emissive_strength"
	],
	"scene":0,
	"scenes":[
		{
			"name":"Scene",
			"nodes":[
				4,
				5,
				6
			]
		}
	],
	"nodes":[
		{
			"name":"Bone",
			"rotation":[
				-3.552713678800501e-15,
				-1.1920926823449918e-07,
				4.235165241142481e-22,
				1
			],
			"translation":[
				0,
				7.1904778480529785,
				0
			]
		},
		{
			"name":"Bone.002",
			"rotation":[
				-3.5527119847346064e-15,
				1.1920927533992653e-07,
				0,
				1
			],
			"translation":[
				1.6266866597215018e-13,
				-5.500524520874023,
				5.723394870758057
			]
		},
		{
			"children":[
				1
			],
			"name":"Bone.001",
			"rotation":[
				-3.552713678800501e-15,
				-1.1920927533992653e-07,
				4.235164736271502e-22,
				1
			],
			"translation":[
				0,
				10.385786056518555,
				0
			]
		},
		{
			"children":[
				0,
				2
			],
			"name":"Bone.003",
			"rotation":[
				-2.980232594040899e-08,
				1.1920927533992653e-07,
				0,
				1
			],
			"scale":[
				1,
				0.9999999403953552,
				0.9999999403953552
			],
			"translation":[
				0,
				2.145226001739502,
				0
			]
		},
		{
			"mesh":0,
			"name":"Cylinder.001",
			"skin":0
		},
		{
			"children":[
				3
			],
			"name":"Armature"
		},
		{
			"mesh":1,
			"name":"Cylinder.002",
			"skin":0
		}
	],
	"animations":[
		{
			"channels":[
				{
					"sampler":0,
					"target":{
						"node":3,
						"path":"translation"
					}
				},
				{
					"sampler":1,
					"target":{
						"node":3,
						"path":"rotation"
					}
				},
				{
					"sampler":2,
					"target":{
						"node":3,
						"path":"scale"
					}
				},
				{
					"sampler":3,
					"target":{
						"node":0,
						"path":"translation"
					}
				},
				{
					"sampler":4,
					"target":{
						"node":0,
						"path":"rotation"
					}
				},
				{
					"sampler":5,
					"target":{
						"node":0,
						"path":"scale"
					}
				},
				{
					"sampler":6,
					"target":{
						"node":2,
						"path":"translation"
					}
				},
				{
					"sampler":7,
					"target":{
						"node":2,
						"path":"rotation"
					}
				},
				{
					"sampler":8,
					"target":{
						"node":2,
						"path":"scale"
					}
				},
				{
					"sampler":9,
					"target":{
						"node":1,
						"path":"translation"
					}
				},
				{
					"sampler":10,
					"target":{
						"node":1,
						"path":"rotation"
					}
				},
				{
					"sampler":11,
					"target":{
						"node":1,
						"path":"scale"
					}
				}
			],
			"name":"idle_start",
			"samplers":[
				{
					"input":13,
					"interpolation":"STEP",
					"output":14
				},
				{
					"input":13,
					"interpolation":"STEP",
					"output":15
				},
				{
					"input":13,
					"interpolation":"STEP",
					"output":16
				},
				{
					"input":17,
					"interpolation":"LINEAR",
					"output":18
				},
				{
					"input":13,
					"interpolation":"LINEAR",
					"output":19
				},
				{
					"input":17,
					"interpolation":"LINEAR",
					"output":20
				},
				{
					"input":17,
					"interpolation":"LINEAR",
					"output":21
				},
				{
					"input":13,
					"interpolation":"STEP",
					"output":22
				},
				{
					"input":17,
					"interpolation":"LINEAR",
					"output":23
				},
				{
					"input":17,
					"interpolation":"LINEAR",
					"output":24
				},
				{
					"input":13,
					"interpolation":"STEP",
					"output":25
				},
				{
					"input":13,
					"interpolation":"STEP",
					"output":26
				}
			]
		},
		{
			"channels":[
				{
					"sampler":0,
					"target":{
						"node":3,
						"path":"translation"
					}
				},
				{
					"sampler":1,
					"target":{
						"node":3,
						"path":"rotation"
					}
				},
				{
					"sampler":2,
					"target":{
						"node":3,
						"path":"scale"
					}
				},
				{
					"sampler":3,
					"target":{
						"node":0,
						"path":"translation"
					}
				},
				{
					"sampler":4,
					"target":{
						"node":0,
						"path":"rotation"
					}
				},
				{
					"sampler":5,
					"target":{
						"node":0,
						"path":"scale"
					}
				},
				{
					"sampler":6,
					"target":{
						"node":2,
						"path":"translation"
					}
				},
				{
					"sampler":7,
					"target":{
						"node":2,
						"path":"rotation"
					}
				},
				{
					"sampler":8,
					"target":{
						"node":2,
						"path":"scale"
					}
				},
				{
					"sampler":9,
					"target":{
						"node":1,
						"path":"translation"
					}
				},
				{
					"sampler":10,
					"target":{
						"node":1,
						"path":"rotation"
					}
				},
				{
					"sampler":11,
					"target":{
						"node":1,
						"path":"scale"
					}
				}
			],
			"name":"work",
			"samplers":[
				{
					"input":13,
					"interpolation":"STEP",
					"output":27
				},
				{
					"input":13,
					"interpolation":"STEP",
					"output":28
				},
				{
					"input":13,
					"interpolation":"STEP",
					"output":29
				},
				{
					"input":13,
					"interpolation":"STEP",
					"output":30
				},
				{
					"input":13,
					"interpolation":"STEP",
					"output":31
				},
				{
					"input":13,
					"interpolation":"STEP",
					"output":32
				},
				{
					"input":13,
					"interpolation":"STEP",
					"output":33
				},
				{
					"input":13,
					"interpolation":"STEP",
					"output":34
				},
				{
					"input":13,
					"interpolation":"STEP",
					"output":35
				},
				{
					"input":13,
					"interpolation":"STEP",
					"output":36
				},
				{
					"input":13,
					"interpolation":"STEP",
					"output":37
				},
				{
					"input":13,
					"interpolation":"STEP",
					"output":38
				}
			]
		},
		{
			"channels":[
				{
					"sampler":0,
					"target":{
						"node":3,
						"path":"translation"
					}
				},
				{
					"sampler":1,
					"target":{
						"node":3,
						"path":"rotation"
					}
				},
				{
					"sampler":2,
					"target":{
						"node":3,
						"path":"scale"
					}
				},
				{
					"sampler":3,
					"target":{
						"node":0,
						"path":"translation"
					}
				},
				{
					"sampler":4,
					"target":{
						"node":0,
						"path":"rotation"
					}
				},
				{
					"sampler":5,
					"target":{
						"node":0,
						"path":"scale"
					}
				},
				{
					"sampler":6,
					"target":{
						"node":2,
						"path":"translation"
					}
				},
				{
					"sampler":7,
					"target":{
						"node":2,
						"path":"rotation"
					}
				},
				{
					"sampler":8,
					"target":{
						"node":2,
						"path":"scale"
					}
				},
				{
					"sampler":9,
					"target":{
						"node":1,
						"path":"translation"
					}
				},
				{
					"sampler":10,
					"target":{
						"node":1,
						"path":"rotation"
					}
				},
				{
					"sampler":11,
					"target":{
						"node":1,
						"path":"scale"
					}
				}
			],
			"name":"work_start",
			"samplers":[
				{
					"input":13,
					"interpolation":"STEP",
					"output":39
				},
				{
					"input":13,
					"interpolation":"STEP",
					"output":40
				},
				{
					"input":13,
					"interpolation":"STEP",
					"output":41
				},
				{
					"input":17,
					"interpolation":"LINEAR",
					"output":42
				},
				{
					"input":13,
					"interpolation":"LINEAR",
					"output":43
				},
				{
					"input":17,
					"interpolation":"LINEAR",
					"output":44
				},
				{
					"input":17,
					"interpolation":"LINEAR",
					"output":45
				},
				{
					"input":13,
					"interpolation":"LINEAR",
					"output":46
				},
				{
					"input":17,
					"interpolation":"LINEAR",
					"output":47
				},
				{
					"input":17,
					"interpolation":"LINEAR",
					"output":48
				},
				{
					"input":13,
					"interpolation":"STEP",
					"output":49
				},
				{
					"input":13,
					"interpolation":"STEP",
					"output":50
				}
			]
		}
	],
	"materials":[
		{
			"doubleSided":true,
			"emissiveFactor":[
				1,
				1,
				1
			],
			"emissiveTexture":{
				"index":0
			},
			"extensions":{
				"KHR_materials_emissive_strength":{
					"emissiveStrength":30
				}
			},
			"name":"Material",
			"normalTexture":{
				"index":1,
				"scale":3
			},
			"pbrMetallicRoughness":{
				"baseColorTexture":{
					"index":2
				},
				"metallicRoughnessTexture":{
					"index":3
				}
			}
		},
		{
			"doubleSided":true,
			"emissiveFactor":[
				1,
				1,
				1
			],
			"emissiveTexture":{
				"index":4
			},
			"extensions":{
				"KHR_materials_emissive_strength":{
					"emissiveStrength":20
				}
			},
			"name":"Material.001",
			"pbrMetallicRoughness":{
				"baseColorTexture":{
					"index":5
				},
				"metallicFactor":0,
				"roughnessFactor":0.5
			}
		}
	],
	"meshes":[
		{
			"name":"Cylinder.001",
			"primitives":[
				{
					"attributes":{
						"POSITION":0,
						"NORMAL":1,
						"TEXCOORD_0":2,
						"JOINTS_0":3,
						"WEIGHTS_0":4
					},
					"indices":5,
					"material":0
				}
			]
		},
		{
			"name":"Cylinder.002",
			"primitives":[
				{
					"attributes":{
						"POSITION":7,
						"NORMAL":8,
						"TEXCOORD_0":9,
						"JOINTS_0":10,
						"WEIGHTS_0":11
					},
					"indices":12,
					"material":1
				}
			]
		}
	],
	"textures":[
		{
			"sampler":0,
			"source":0
		},
		{
			"sampler":0,
			"source":1
		},
		{
			"sampler":0,
			"source":2
		},
		{
			"sampler":0,
			"source":3
		},
		{
			"sampler":0,
			"source":4
		},
		{
			"sampler":0,
			"source":4
		}
	],
	"images":[
		{
			"mimeType":"image/png",
			"name":"furnace_light",
			"uri":"furnace_light.png"
		},
		{
			"mimeType":"image/png",
			"name":"furnace_norml",
			"uri":"furnace_norml.png"
		},
		{
			"mimeType":"image/png",
			"name":"furnace_color",
			"uri":"furnace_color.png"
		},
		{
			"mimeType":"image/png",
			"name":"furnace_Metallic-furnace_Roughness",
			"uri":"furnace_Metallic-furnace_Roughness.png"
		},
		{
			"mimeType":"image/png",
			"name":"lava_light",
			"uri":"lava_light.png"
		}
	],
	"skins":[
		{
			"inverseBindMatrices":6,
			"joints":[
				3,
				0,
				2,
				1
			],
			"name":"Armature"
		}
	],
	"accessors":[
		{
			"bufferView":0,
			"componentType":5126,
			"count":9744,
			"max":[
				14.866198539733887,
				14.33006763458252,
				14.866191864013672
			],
			"min":[
				-14.866198539733887,
				0.009049415588378906,
				-14.866191864013672
			],
			"type":"VEC3"
		},
		{
			"bufferView":1,
			"componentType":5126,
			"count":9744,
			"type":"VEC3"
		},
		{
			"bufferView":2,
			"componentType":5126,
			"count":9744,
			"type":"VEC2"
		},
		{
			"bufferView":3,
			"componentType":5121,
			"count":9744,
			"type":"VEC4"
		},
		{
			"bufferView":4,
			"componentType":5126,
			"count":9744,
			"type":"VEC4"
		},
		{
			"bufferView":5,
			"componentType":5123,
			"count":22254,
			"type":"SCALAR"
		},
		{
			"bufferView":6,
			"componentType":5126,
			"count":4,
			"type":"MAT4"
		},
		{
			"bufferView":7,
			"componentType":5126,
			"count":63,
			"max":[
				8.709909439086914,
				13.38031005859375,
				8.709909439086914
			],
			"min":[
				-8.709909439086914,
				6.180063724517822,
				-8.709909439086914
			],
			"type":"VEC3"
		},
		{
			"bufferView":8,
			"componentType":5126,
			"count":63,
			"type":"VEC3"
		},
		{
			"bufferView":9,
			"componentType":5126,
			"count":63,
			"type":"VEC2"
		},
		{
			"bufferView":10,
			"componentType":5121,
			"count":63,
			"type":"VEC4"
		},
		{
			"bufferView":11,
			"componentType":5126,
			"count":63,
			"type":"VEC4"
		},
		{
			"bufferView":12,
			"componentType":5123,
			"count":156,
			"type":"SCALAR"
		},
		{
			"bufferView":13,
			"componentType":5126,
			"count":2,
			"max":[
				3
			],
			"min":[
				0
			],
			"type":"SCALAR"
		},
		{
			"bufferView":14,
			"componentType":5126,
			"count":2,
			"type":"VEC3"
		},
		{
			"bufferView":15,
			"componentType":5126,
			"count":2,
			"type":"VEC4"
		},
		{
			"bufferView":16,
			"componentType":5126,
			"count":2,
			"type":"VEC3"
		},
		{
			"bufferView":17,
			"componentType":5126,
			"count":91,
			"max":[
				3
			],
			"min":[
				0
			],
			"type":"SCALAR"
		},
		{
			"bufferView":18,
			"componentType":5126,
			"count":91,
			"type":"VEC3"
		},
		{
			"bufferView":19,
			"componentType":5126,
			"count":2,
			"type":"VEC4"
		},
		{
			"bufferView":20,
			"componentType":5126,
			"count":91,
			"type":"VEC3"
		},
		{
			"bufferView":21,
			"componentType":5126,
			"count":91,
			"type":"VEC3"
		},
		{
			"bufferView":22,
			"componentType":5126,
			"count":2,
			"type":"VEC4"
		},
		{
			"bufferView":23,
			"componentType":5126,
			"count":91,
			"type":"VEC3"
		},
		{
			"bufferView":24,
			"componentType":5126,
			"count":91,
			"type":"VEC3"
		},
		{
			"bufferView":25,
			"componentType":5126,
			"count":2,
			"type":"VEC4"
		},
		{
			"bufferView":26,
			"componentType":5126,
			"count":2,
			"type":"VEC3"
		},
		{
			"bufferView":27,
			"componentType":5126,
			"count":2,
			"type":"VEC3"
		},
		{
			"bufferView":28,
			"componentType":5126,
			"count":2,
			"type":"VEC4"
		},
		{
			"bufferView":29,
			"componentType":5126,
			"count":2,
			"type":"VEC3"
		},
		{
			"bufferView":30,
			"componentType":5126,
			"count":2,
			"type":"VEC3"
		},
		{
			"bufferView":31,
			"componentType":5126,
			"count":2,
			"type":"VEC4"
		},
		{
			"bufferView":32,
			"componentType":5126,
			"count":2,
			"type":"VEC3"
		},
		{
			"bufferView":33,
			"componentType":5126,
			"count":2,
			"type":"VEC3"
		},
		{
			"bufferView":34,
			"componentType":5126,
			"count":2,
			"type":"VEC4"
		},
		{
			"bufferView":35,
			"componentType":5126,
			"count":2,
			"type":"VEC3"
		},
		{
			"bufferView":36,
			"componentType":5126,
			"count":2,
			"type":"VEC3"
		},
		{
			"bufferView":37,
			"componentType":5126,
			"count":2,
			"type":"VEC4"
		},
		{
			"bufferView":38,
			"componentType":5126,
			"count":2,
			"type":"VEC3"
		},
		{
			"bufferView":39,
			"componentType":5126,
			"count":2,
			"type":"VEC3"
		},
		{
			"bufferView":40,
			"componentType":5126,
			"count":2,
			"type":"VEC4"
		},
		{
			"bufferView":41,
			"componentType":5126,
			"count":2,
			"type":"VEC3"
		},
		{
			"bufferView":42,
			"componentType":5126,
			"count":91,
			"type":"VEC3"
		},
		{
			"bufferView":43,
			"componentType":5126,
			"count":2,
			"type":"VEC4"
		},
		{
			"bufferView":44,
			"componentType":5126,
			"count":91,
			"type":"VEC3"
		},
		{
			"bufferView":45,
			"componentType":5126,
			"count":91,
			"type":"VEC3"
		},
		{
			"bufferView":46,
			"componentType":5126,
			"count":2,
			"type":"VEC4"
		},
		{
			"bufferView":47,
			"componentType":5126,
			"count":91,
			"type":"VEC3"
		},
		{
			"bufferView":48,
			"componentType":5126,
			"count":91,
			"type":"VEC3"
		},
		{
			"bufferView":49,
			"componentType":5126,
			"count":2,
			"type":"VEC4"
		},
		{
			"bufferView":50,
			"componentType":5126,
			"count":2,
			"type":"VEC3"
		}
	],
	"bufferViews":[
		{
			"buffer":0,
			"byteLength":116928,
			"byteOffset":0,
			"target":34962
		},
		{
			"buffer":0,
			"byteLength":116928,
			"byteOffset":116928,
			"target":34962
		},
		{
			"buffer":0,
			"byteLength":77952,
			"byteOffset":233856,
			"target":34962
		},
		{
			"buffer":0,
			"byteLength":38976,
			"byteOffset":311808,
			"target":34962
		},
		{
			"buffer":0,
			"byteLength":155904,
			"byteOffset":350784,
			"target":34962
		},
		{
			"buffer":0,
			"byteLength":44508,
			"byteOffset":506688,
			"target":34963
		},
		{
			"buffer":0,
			"byteLength":256,
			"byteOffset":551196
		},
		{
			"buffer":0,
			"byteLength":756,
			"byteOffset":551452,
			"target":34962
		},
		{
			"buffer":0,
			"byteLength":756,
			"byteOffset":552208,
			"target":34962
		},
		{
			"buffer":0,
			"byteLength":504,
			"byteOffset":552964,
			"target":34962
		},
		{
			"buffer":0,
			"byteLength":252,
			"byteOffset":553468,
			"target":34962
		},
		{
			"buffer":0,
			"byteLength":1008,
			"byteOffset":553720,
			"target":34962
		},
		{
			"buffer":0,
			"byteLength":312,
			"byteOffset":554728,
			"target":34963
		},
		{
			"buffer":0,
			"byteLength":8,
			"byteOffset":555040
		},
		{
			"buffer":0,
			"byteLength":24,
			"byteOffset":555048
		},
		{
			"buffer":0,
			"byteLength":32,
			"byteOffset":555072
		},
		{
			"buffer":0,
			"byteLength":24,
			"byteOffset":555104
		},
		{
			"buffer":0,
			"byteLength":364,
			"byteOffset":555128
		},
		{
			"buffer":0,
			"byteLength":1092,
			"byteOffset":555492
		},
		{
			"buffer":0,
			"byteLength":32,
			"byteOffset":556584
		},
		{
			"buffer":0,
			"byteLength":1092,
			"byteOffset":556616
		},
		{
			"buffer":0,
			"byteLength":1092,
			"byteOffset":557708
		},
		{
			"buffer":0,
			"byteLength":32,
			"byteOffset":558800
		},
		{
			"buffer":0,
			"byteLength":1092,
			"byteOffset":558832
		},
		{
			"buffer":0,
			"byteLength":1092,
			"byteOffset":559924
		},
		{
			"buffer":0,
			"byteLength":32,
			"byteOffset":561016
		},
		{
			"buffer":0,
			"byteLength":24,
			"byteOffset":561048
		},
		{
			"buffer":0,
			"byteLength":24,
			"byteOffset":561072
		},
		{
			"buffer":0,
			"byteLength":32,
			"byteOffset":561096
		},
		{
			"buffer":0,
			"byteLength":24,
			"byteOffset":561128
		},
		{
			"buffer":0,
			"byteLength":24,
			"byteOffset":561152
		},
		{
			"buffer":0,
			"byteLength":32,
			"byteOffset":561176
		},
		{
			"buffer":0,
			"byteLength":24,
			"byteOffset":561208
		},
		{
			"buffer":0,
			"byteLength":24,
			"byteOffset":561232
		},
		{
			"buffer":0,
			"byteLength":32,
			"byteOffset":561256
		},
		{
			"buffer":0,
			"byteLength":24,
			"byteOffset":561288
		},
		{
			"buffer":0,
			"byteLength":24,
			"byteOffset":561312
		},
		{
			"buffer":0,
			"byteLength":32,
			"byteOffset":561336
		},
		{
			"buffer":0,
			"byteLength":24,
			"byteOffset":561368
		},
		{
			"buffer":0,
			"byteLength":24,
			"byteOffset":561392
		},
		{
			"buffer":0,
			"byteLength":32,
			"byteOffset":561416
		},
		{
			"buffer":0,
			"byteLength":24,
			"byteOffset":561448
		},
		{
			"buffer":0,
			"byteLength":1092,
			"byteOffset":561472
		},
		{
			"buffer":0,
			"byteLength":32,
			"byteOffset":562564
		},
		{
			"buffer":0,
			"byteLength":1092,
			"byteOffset":562596
		},
		{
			"buffer":0,
			"byteLength":1092,
			"byteOffset":563688
		},
		{
			"buffer":0,
			"byteLength":32,
			"byteOffset":564780
		},
		{
			"buffer":0,
			"byteLength":1092,
			"byteOffset":564812
		},
		{
			"buffer":0,
			"byteLength":1092,
			"byteOffset":565904
		},
		{
			"buffer":0,
			"byteLength":32,
			"byteOffset":566996
		},
		{
			"buffer":0,
			"byteLength":24,
			"byteOffset":567028
		}
	],
	"samplers":[
		{
			"magFilter":9729,
			"minFilter":9987
		}
	],
	"buffers":[
		{
			"byteLength":567052,
			"uri":"furnace-1.bin"
		}
	]
}
