{
	"asset":{
		"generator":"Khronos glTF Blender I/O v4.0.44",
		"version":"2.0"
	},
	"extensionsUsed":[
		"KHR_materials_emissive_strength"
	],
	"scene":0,
	"scenes":[
		{
			"name":"Scene",
			"nodes":[
				0
			]
		}
	],
	"nodes":[
		{
			"mesh":0,
			"name":"Cube.003",
			"rotation":[
				0,
				-0.6087613701820374,
				0,
				0.7933533787727356
			]
		}
	],
	"materials":[
		{
			"doubleSided":true,
			"emissiveFactor":[
				1,
				1,
				1
			],
			"emissiveTexture":{
				"index":0
			},
			"extensions":{
				"KHR_materials_emissive_strength":{
					"emissiveStrength":10
				}
			},
			"name":"Material",
			"normalTexture":{
				"index":1,
				"scale":2
			},
			"pbrMetallicRoughness":{
				"baseColorTexture":{
					"index":2
				},
				"metallicRoughnessTexture":{
					"index":3
				}
			}
		}
	],
	"meshes":[
		{
			"name":"Cube.001",
			"primitives":[
				{
					"attributes":{
						"POSITION":0,
						"NORMAL":1,
						"TEXCOORD_0":2
					},
					"indices":3,
					"material":0
				}
			]
		}
	],
	"textures":[
		{
			"sampler":0,
			"source":0
		},
		{
			"sampler":0,
			"source":1
		},
		{
			"sampler":0,
			"source":2
		},
		{
			"sampler":0,
			"source":3
		}
	],
	"images":[
		{
			"mimeType":"image/png",
			"name":"Distiller_light",
			"uri":"Distiller_light.png"
		},
		{
			"mimeType":"image/png",
			"name":"Distillery_normal",
			"uri":"Distillery_normal.png"
		},
		{
			"mimeType":"image/png",
			"name":"Distillery_color",
			"uri":"Distillery_color.png"
		},
		{
			"mimeType":"image/png",
			"name":"Distillery_Metallic-Distillery_Roughness",
			"uri":"Distillery_Metallic-Distillery_Roughness.png"
		}
	],
	"accessors":[
		{
			"bufferView":0,
			"componentType":5126,
			"count":13514,
			"max":[
				27.12793731689453,
				33.861446380615234,
				24.720298767089844
			],
			"min":[
				-29.71612548828125,
				0.10193934291601181,
				-27.250463485717773
			],
			"type":"VEC3"
		},
		{
			"bufferView":1,
			"componentType":5126,
			"count":13514,
			"type":"VEC3"
		},
		{
			"bufferView":2,
			"componentType":5126,
			"count":13514,
			"type":"VEC2"
		},
		{
			"bufferView":3,
			"componentType":5123,
			"count":25047,
			"type":"SCALAR"
		}
	],
	"bufferViews":[
		{
			"buffer":0,
			"byteLength":162168,
			"byteOffset":0,
			"target":34962
		},
		{
			"buffer":0,
			"byteLength":162168,
			"byteOffset":162168,
			"target":34962
		},
		{
			"buffer":0,
			"byteLength":108112,
			"byteOffset":324336,
			"target":34962
		},
		{
			"buffer":0,
			"byteLength":50094,
			"byteOffset":432448,
			"target":34963
		}
	],
	"samplers":[
		{
			"magFilter":9729,
			"minFilter":9987
		}
	],
	"buffers":[
		{
			"byteLength":482544,
			"uri":"distillery-1.bin"
		}
	]
}
