{
	"asset":{
		"generator":"Khronos glTF Blender I/O v4.0.44",
		"version":"2.0"
	},
	"scene":0,
	"scenes":[
		{
			"name":"Scene",
			"nodes":[
				0
			]
		}
	],
	"nodes":[
		{
			"mesh":0,
			"name":"Plane.003",
			"scale":[
				1.275299310684204,
				1.275299310684204,
				0.8501995801925659
			],
			"translation":[
				0,
				6.542379856109619,
				0.8280454277992249
			]
		}
	],
	"materials":[
		{
			"doubleSided":true,
			"emissiveFactor":[
				1,
				1,
				1
			],
			"emissiveTexture":{
				"index":0
			},
			"name":"Material.001",
			"normalTexture":{
				"index":1
			},
			"pbrMetallicRoughness":{
				"baseColorTexture":{
					"index":2
				},
				"metallicRoughnessTexture":{
					"index":3
				}
			}
		}
	],
	"meshes":[
		{
			"name":"Plane.001",
			"primitives":[
				{
					"attributes":{
						"POSITION":0,
						"NORMAL":1,
						"TEXCOORD_0":2
					},
					"indices":3,
					"material":0
				}
			]
		}
	],
	"textures":[
		{
			"sampler":0,
			"source":0
		},
		{
			"sampler":0,
			"source":1
		},
		{
			"sampler":0,
			"source":2
		},
		{
			"sampler":0,
			"source":3
		}
	],
	"images":[
		{
			"mimeType":"image/png",
			"name":"boiler_light",
			"uri":"boiler_light.png"
		},
		{
			"mimeType":"image/png",
			"name":"boiler_normal",
			"uri":"boiler_normal.png"
		},
		{
			"mimeType":"image/png",
			"name":"boiler_color",
			"uri":"boiler_color.png"
		},
		{
			"mimeType":"image/png",
			"name":"boiler_Metallic-boiler_Roughness",
			"uri":"boiler_Metallic-boiler_Roughness.png"
		}
	],
	"accessors":[
		{
			"bufferView":0,
			"componentType":5126,
			"count":2450,
			"max":[
				10.349846839904785,
				7.086336612701416,
				11.610115051269531
			],
			"min":[
				-10.349846839904785,
				-5.063778400421143,
				-12.374149322509766
			],
			"type":"VEC3"
		},
		{
			"bufferView":1,
			"componentType":5126,
			"count":2450,
			"type":"VEC3"
		},
		{
			"bufferView":2,
			"componentType":5126,
			"count":2450,
			"type":"VEC2"
		},
		{
			"bufferView":3,
			"componentType":5123,
			"count":5349,
			"type":"SCALAR"
		}
	],
	"bufferViews":[
		{
			"buffer":0,
			"byteLength":29400,
			"byteOffset":0,
			"target":34962
		},
		{
			"buffer":0,
			"byteLength":29400,
			"byteOffset":29400,
			"target":34962
		},
		{
			"buffer":0,
			"byteLength":19600,
			"byteOffset":58800,
			"target":34962
		},
		{
			"buffer":0,
			"byteLength":10698,
			"byteOffset":78400,
			"target":34963
		}
	],
	"samplers":[
		{
			"magFilter":9729,
			"minFilter":9987
		}
	],
	"buffers":[
		{
			"byteLength":89100,
			"uri":"boiler.bin"
		}
	]
}
